<?xml version="1.0" encoding="UTF-8" standalone="no"?>
<!-- Created with Inkscape (http://www.inkscape.org/) -->

<svg
   width="159.99232mm"
   height="15.959621mm"
   viewBox="0 0 159.99232 15.959621"
   version="1.1"
   id="svg1"
   inkscape:version="1.4 (86a8ad7, 2024-10-11)"
   sodipodi:docname="船艦美術草稿.svg"
   xml:space="preserve"
   inkscape:export-filename="NavalChess\wwwroot\images\UI\arrow.svg"
   inkscape:export-xdpi="100"
   inkscape:export-ydpi="100"
   xmlns:inkscape="http://www.inkscape.org/namespaces/inkscape"
   xmlns:sodipodi="http://sodipodi.sourceforge.net/DTD/sodipodi-0.dtd"
   xmlns="http://www.w3.org/2000/svg"
   xmlns:svg="http://www.w3.org/2000/svg"><sodipodi:namedview
   id="namedview1"
   pagecolor="#ffffff"
   bordercolor="#000000"
   borderopacity="0.25"
   inkscape:showpageshadow="2"
   inkscape:pageopacity="0.0"
   inkscape:pagecheckerboard="0"
   inkscape:deskcolor="#d1d1d1"
   inkscape:document-units="mm"
   inkscape:lockguides="false"
   showgrid="true"
   inkscape:zoom="1.4142136"
   inkscape:cx="338.70414"
   inkscape:cy="672.8121"
   inkscape:window-width="1920"
   inkscape:window-height="1009"
   inkscape:window-x="-8"
   inkscape:window-y="-8"
   inkscape:window-maximized="1"
   inkscape:current-layer="svg1"
   inkscape:export-bgcolor="#ffffff00"
   showguides="true"><inkscape:grid
     id="grid4"
     units="mm"
     originx="-76.43044"
     originy="-321.44255"
     spacingx="2.0000001"
     spacingy="1.9999996"
     empcolor="#0099e5"
     empopacity="0.30196078"
     color="#0099e5"
     opacity="0.14901961"
     empspacing="8"
     enabled="true"
     visible="true"
     snapvisiblegridlinesonly="true"
     dotted="false" /><inkscape:page
     x="0"
     y="0"
     width="159.99232"
     height="15.959621"
     id="page2"
     margin="0"
     bleed="0" /></sodipodi:namedview><defs
   id="defs1" />


  

  
<g
   id="layer1-1-1-1-1"
   inkscape:label="Soundwave.svg"
   transform="matrix(0.52972895,0,0,0.264583,-301.87174,-171.38482)"
   inkscape:export-filename="NavalChess\wwwroot\images\effects\RadioWaves.svg"
   inkscape:export-xdpi="100"
   inkscape:export-ydpi="100"
   style="fill:#484848;fill-opacity:0.737179">
    <path
   id="path22"
   d="m 574.27992,647.7544 -0.21944,9.18447 c -0.10881,5.05475 -0.37999,10.10488 -0.6268,11.22849 -0.24682,1.12327 -0.52532,2.89632 -0.59552,3.93325 -0.0701,1.03685 -0.18724,-0.3098 -0.28202,-2.98837 l -0.18804,-4.87805 -0.25072,3.31799 -0.25072,3.29599 -0.3448,-2.98836 c -0.18714,-1.6417 -0.47557,-4.26759 -0.6581,-5.82287 l -0.34479,-2.81258 -0.21943,3.29598 c -0.14583,-0.47405 -0.29134,-0.9209 -0.43877,-1.31839 v 26.74125 c 0.10711,-0.28842 0.20439,-0.51504 0.3134,-0.81297 0.1713,0.12011 0.43817,2.51423 0.59552,5.31753 l 0.28202,5.0978 0.15665,-5.33954 c 0.0806,-2.93781 0.24962,-4.84572 0.37608,-4.2408 l 0.21943,1.09866 0.31341,-1.09866 c 0.28823,-1.01774 0.30949,-0.96205 0.43876,0.63719 0.13941,1.72355 0.15285,1.71314 0.43877,-0.63719 0.17661,-1.45213 0.36034,1.38083 0.47016,7.383 l 0.18804,9.73433 0.25072,-6.13057 c 0.14101,-3.40927 0.29054,-4.82532 0.3448,-3.20809 0.0564,1.68262 0.27338,2.90046 0.53273,2.90046 0.24651,0 0.50747,0.74069 0.56413,1.64803 0.0717,-0.55013 0.23377,-4.13357 0.34479,-9.03118 l 0.25073,-10.67935 0.0941,13.75491 0.0941,13.73309 h 0.43877 l 0.0627,-10.59075 h 0.0313 c 0.0377,-6.34312 0.17229,-9.91081 0.37608,-8.87719 0.18744,0.95044 0.39003,3.19537 0.43877,5.00991 0.0487,1.81453 0.25132,4.08139 0.43876,5.03183 0.27199,1.37929 0.34349,0.80173 0.43877,-2.83452 0.0657,-2.50578 0.26647,-6.59112 0.43876,-9.09727 l 0.31341,-4.57042 0.18804,4.08702 0.15665,4.08701 0.28202,-4.08701 c 0.20639,-3.17963 0.29836,-1.94456 0.40737,5.51531 0.17872,12.21924 0.74405,16.17019 0.90882,6.28435 0.0648,-3.88825 0.25133,-6.80574 0.40738,-6.46013 0.15615,0.34559 0.39373,-0.57462 0.53273,-2.04348 0.18594,-1.96388 0.30538,-0.88048 0.43877,4.08701 0.15184,5.65398 0.19687,6.07728 0.3134,2.59285 0.0808,-2.416 0.3116,-4.15291 0.56413,-4.15291 0.25514,0 0.47296,-1.58889 0.50145,-3.84534 0.0268,-2.11696 0.19255,-4.69813 0.37608,-5.73499 0.28753,-1.62483 0.36606,-1.30468 0.50145,2.35117 0.12586,3.399 0.19245,3.72519 0.3134,1.64803 0.083,-1.42569 0.33627,-2.59283 0.56413,-2.59283 0.22786,0 0.45291,1.45874 0.53274,3.23009 l 0.15665,3.2081 0.15665,-3.75746 0.18804,-3.7794 0.31341,2.35117 c 0.1744,1.2961 0.37177,5.96463 0.43876,10.37137 0.10992,7.23183 0.16588,7.68958 0.50145,4.57044 0.53133,-4.93854 0.67876,-5.39677 0.84624,-2.37312 0.12757,2.30351 0.17029,2.45369 0.37608,1.09866 0.23588,-1.5524 0.26396,-1.53756 0.53274,0.79104 0.16919,1.46557 0.32765,-0.91057 0.43877,-6.28434 l 0.18804,-8.63531 0.25072,6.43813 0.25072,6.43811 0.18805,-8.48131 c 0.15314,-6.57813 0.23909,-7.40691 0.34479,-3.6915 0.0806,2.83409 0.30598,4.79016 0.56413,4.79016 0.24009,0 0.43876,-0.76558 0.43876,-1.69191 0,-2.27636 0.49784,-4.59237 0.97161,-4.59237 0.21301,0 0.37608,0.42645 0.37608,0.94489 0,1.66828 0.88525,1.00599 0.94021,-0.70314 0.11343,-3.52957 0.68438,-3.65635 1.09697,-0.24175 l 0.37608,3.29599 0.53274,-3.29599 c 0.49382,-3.16372 0.49814,-2.8992 0.6581,6.59198 l 0.18804,9.9101 0.25072,-9.9101 0.21944,-9.88762 0.21943,8.32804 c 0.1746,7.47582 0.20178,7.8956 0.43876,4.08702 l 0.28202,-4.24079 0.18804,5.03184 0.18804,5.0099 0.25073,-5.95479 0.25072,-5.97672 0.15665,7.53699 c 0.13439,6.08755 0.23157,7.03426 0.50145,4.87806 0.18383,-1.46886 0.39464,-4.45378 0.47015,-6.61391 l 0.15666,-3.91124 0.25072,4.39466 c 0.14452,2.41937 0.29375,3.53695 0.34479,2.48293 0.15746,-3.25639 0.657,-6.74589 0.94021,-6.54803 0.14833,0.10365 0.39765,3.73672 0.53274,8.08616 l 0.25072,7.91038 0.12537,-10.83264 c 0.14381,-12.78175 0.81555,-15.7469 1.00289,-4.39465 l 0.12536,7.69098 0.25072,-5.33953 c 0.10601,-2.20337 0.25534,-3.67322 0.3448,-3.86729 0.0172,0.0238 0.0501,0.10919 0.0627,0.26368 0.11282,1.39025 0.21281,1.55486 0.50145,0.92287 0.19736,-0.432 0.3828,-1.47948 0.40737,-2.32916 0.0606,-2.09283 0.47577,-1.6469 0.90882,0.96683 l 0.3448,2.15337 0.15665,-2.35117 c 0.12355,-1.92844 0.19145,-1.58159 0.40737,1.8897 0.24902,4.00215 0.29686,3.81898 0.47016,-3.29599 0.16538,-6.79264 0.18704,-7.15096 0.40737,-3.47176 0.13449,2.24654 0.3815,3.72799 0.53274,3.29598 0.26025,-0.74315 0.28703,-0.73478 0.3448,-0.0659 0.0336,0.38883 0.22404,0.70314 0.43876,0.70314 0.21472,0 0.57546,0.74069 0.78346,1.64802 l 0.37609,1.64803 0.25072,-2.35117 0.28201,-2.35117 0.15665,2.35117 c 0.14853,2.13911 0.19537,2.20049 0.3448,0.70314 0.0906,-0.90726 0.33055,-1.64802 0.56413,-1.64802 0.23357,0 0.46002,-1.09972 0.50144,-2.43907 l 0.0941,-2.43907 0.28202,1.8897 0.3134,1.88971 0.0627,-1.80181 c 0.0414,-0.99368 0.26787,-1.80181 0.50145,-1.80181 0.23357,0 0.50495,-0.74076 0.59552,-1.64802 0.0906,-0.90727 0.2441,2.50481 0.34479,7.60238 l 0.18804,9.27306 0.25073,-7.69098 0.25072,-7.71278 0.18804,7.71278 c 0.0984,3.93197 0.15685,5.76802 0.21943,5.99866 0.0475,-0.19688 0.12888,-1.13797 0.21944,-2.70274 l 0.25072,-4.39465 0.25072,3.29598 0.21944,3.29599 0.15665,-4.39465 c 0.0838,-2.41937 0.29916,-6.52673 0.47015,-9.11907 0.27901,-4.22906 0.31281,-3.66964 0.47016,5.49331 0.15886,9.25196 0.21352,9.70619 0.43877,4.72428 l 0.25072,-5.49331 0.21943,3.75746 0.21944,3.77939 0.15665,-4.24086 c 0.0898,-2.70106 0.27298,-3.97199 0.50144,-3.47177 0.2408,0.52714 0.41029,-0.2909 0.50145,-2.50496 l 0.12536,-3.29598 0.15665,2.59284 c 0.083,1.4257 0.32765,2.59284 0.56413,2.59284 0.23648,0 0.43877,-0.42639 0.43877,-0.94487 0,-0.51844 0.19225,-0.9449 0.43876,-0.9449 0.24651,0 0.47016,0.42646 0.47016,0.9449 0,0.51841 0.17179,0.94487 0.40737,0.94487 0.23568,0 0.51038,-1.03234 0.59552,-2.28521 0.0138,-0.20357 0.0458,-0.29883 0.0627,-0.32963 0.0833,0.26016 0.2067,2.20358 0.28201,5.11972 0.13951,5.39304 0.23107,6.33012 0.40738,3.93325 l 0.21943,-3.14221 0.25073,4.2408 0.28201,4.2408 0.18804,-6.13057 0.15665,-6.13056 0.28202,5.03183 0.25072,5.03183 0.0941,-6.52602 c 0.0595,-4.09271 0.25143,-6.50407 0.53274,-6.50407 0.2783,0 0.47948,1.87085 0.50144,4.94394 0.0397,5.54837 0.57697,5.50125 1.12826,-0.0879 0.25403,-2.57597 0.43124,-3.17077 0.6581,-2.35118 0.26366,0.9524 0.29364,0.86157 0.34479,-0.70314 0.0325,-0.99369 0.23999,-1.8018 0.47016,-1.8018 0.23006,0 0.52411,-0.40369 0.62681,-0.87894 0.10269,-0.47526 0.21381,2.34111 0.25072,6.26234 0.0411,4.36174 0.22725,7.21988 0.50145,7.33942 0.29013,0.12571 0.47015,-1.2798 0.47015,-3.97713 0,-4.49069 0.726,-5.36674 1.00289,-1.20856 0.0863,1.29589 0.24511,-0.27471 0.3448,-3.47177 l 0.15665,-5.80094 0.25072,4.24081 0.25073,4.24079 0.37608,-2.90046 c 0.31441,-2.47127 0.44509,-2.8521 0.9716,-2.48295 0.38953,0.27311 0.68679,1.36706 0.78346,2.92241 0.0231,0.37083 0.0386,0.57291 0.0627,0.63719 0.0641,-0.10351 0.16246,-1.20892 0.21943,-3.2081 0.15484,-5.4346 0.77122,-5.4346 0.94021,0 0.12095,3.88895 0.7636,2.93169 0.94021,-1.40628 l 0.12536,-2.98836 0.31341,4.24079 c 0.1751,2.33297 0.38651,6.37287 0.47015,8.96509 0.061,1.89153 0.11734,2.98161 0.15666,3.16414 0.051,-0.29947 0.12776,-2.06091 0.25072,-5.53725 l 0.25072,-7.05324 0.18804,10.83263 0.21944,10.83264 0.21943,-11.62368 0.25072,-11.62366 0.15666,10.0634 0.18804,10.04159 0.37608,-5.62515 c 0.20118,-3.09369 0.45231,-5.76501 0.56413,-5.95479 0.10621,0.11265 0.25353,1.54846 0.3134,3.42784 l 0.12537,3.75746 0.25072,-2.83452 c 0.12606,-1.34448 0.21592,-2.03117 0.28201,-2.17538 0.0544,0.0444 0.12687,0.40908 0.21943,1.07665 0.13178,0.95044 0.31662,-1.22706 0.40738,-4.85607 0.12526,-5.00629 0.25473,-5.99415 0.47016,-4.087 l 0.28201,2.50494 0.12536,-2.50494 c 0.16668,-3.09827 0.7641,-1.9468 0.9716,1.88969 0.0563,1.0408 0.0909,1.58101 0.12536,1.69191 0.0269,-0.079 0.083,-0.38624 0.12537,-0.92287 0.23798,-3.01839 0.65749,-5.00991 1.03418,-5.00991 0.20078,0 0.57205,0.80812 0.81485,1.80181 l 0.43877,1.8018 0.0627,-2.59284 c 0.0331,-1.49179 0.2435,-2.59285 0.50144,-2.59285 0.25574,0 0.4844,1.11379 0.53274,2.59285 0.0353,1.07968 0.057,1.64191 0.0941,1.75786 0.0329,-0.0439 0.10199,-0.35543 0.15665,-0.96682 0.089,-0.99369 0.34279,-1.80181 0.56413,-1.80181 0.22134,0 0.47357,-0.74076 0.56413,-1.64804 0.0906,-0.90726 0.208,3.49246 0.28201,9.80043 l 0.12536,11.46968 0.62681,-3.75746 c 0.74044,-4.52297 0.94834,-5.01089 1.12825,-2.52697 0.0751,1.03687 0.27229,-1.9934 0.40738,-6.74581 l 0.25072,-8.63531 0.15665,9.25056 c 0.18143,9.92276 0.71828,9.74909 0.94022,-0.30762 0.0634,-2.87144 0.11814,-4.17043 0.18804,-4.26281 0.0519,0.11622 0.14652,0.75855 0.25072,1.8238 0.35984,3.67886 0.87753,4.39663 0.87753,1.18657 0,-1.26729 0.15986,-2.19473 0.3448,-2.06548 0.18483,0.12923 0.45802,3.0846 0.59552,6.57003 0.0872,2.21272 0.1414,3.54215 0.18804,3.80133 0.0617,-0.30495 0.139,-2.9532 0.21943,-8.61351 l 0.15665,-11.1624 0.31341,6.70179 c 0.3144,6.55106 0.80111,9.05931 0.9716,5.05386 0.0285,-0.66862 0.0628,-1.06232 0.094,-1.16455 0.0511,0.0704 0.15214,0.72909 0.28201,2.13137 l 0.25073,2.98835 0.18804,-3.29598 0.15665,-3.29599 0.28201,2.35118 c 0.27048,2.2237 0.3103,2.1185 0.47016,-1.73593 l 0.15665,-4.08701 0.25073,3.47176 c 0.24711,3.45075 0.24209,3.4393 0.68948,1.71392 0.39274,-1.51451 0.47999,-0.99122 0.68949,4.24079 l 0.25073,5.97672 0.15665,-8.48131 c 0.15093,-8.53195 0.70433,-10.06902 0.9716,-2.68074 0.1047,2.89562 0.16809,3.34943 0.28201,1.66997 0.085,-1.25286 0.35974,-2.28522 0.59552,-2.28522 0.23568,0 0.40738,0.26966 0.40738,0.61525 0,0.3456 0.20519,0.63719 0.43876,0.63719 0.23358,0 0.50496,-0.74068 0.59552,-1.64802 0.13038,-1.30667 0.19556,-1.10478 0.3134,1.01076 l 0.15666,2.68074 0.3134,-1.8897 c 0.18353,-1.03686 0.38672,-2.94477 0.43877,-4.2408 l 0.094,-2.35117 0.59551,1.88969 c 0.33367,1.03686 0.65439,3.86497 0.68949,6.28436 0.0352,2.41937 0.31672,6.72894 0.62681,9.58032 l 0.56413,5.18569 0.12536,-9.11908 c 0.066,-5.0115 0.23578,-11.6553 0.40737,-14.76601 0.26026,-4.71401 0.34751,-3.18988 0.50145,9.11908 l 0.18804,14.76601 0.25073,-13.20574 0.21943,-13.18394 0.18804,11.62367 c 0.102,6.39403 0.32053,10.56895 0.47016,9.27306 0.26877,-2.32862 0.26556,-2.34344 0.50144,-0.79105 0.0254,0.16693 0.0668,0.23584 0.094,0.24175 0.11041,-0.1791 0.2438,-1.55458 0.3134,-3.69151 0.0704,-2.16013 0.19606,-3.54898 0.28201,-3.62555 0.0128,0.0399 0.02,0.12833 0.0314,0.24174 0.32113,3.21794 1.01383,1.61668 1.09697,-2.52696 0.0799,-3.99061 0.1065,-4.05417 0.37608,-1.49417 0.15465,1.46893 0.33015,2.23163 0.37609,1.66997 0.0459,-0.56161 0.28632,-1.03279 0.53273,-1.03279 0.24651,0 0.46204,-0.74069 0.50145,-1.64802 0.049,-1.13065 0.12687,-1.33717 0.25072,-0.63719 0.10531,0.59478 0.45642,1.03277 0.81485,1.03277 0.35854,0 0.67826,-0.43791 0.78346,-1.03277 0.004,-0.0211 0.0274,-0.0331 0.0314,-0.0439 0.0935,0.28619 0.22415,3.17554 0.28202,7.03144 0.0662,4.40674 0.2446,8.85117 0.40737,9.8876 0.28101,1.78958 0.31782,1.69416 0.62681,-1.73591 0.17902,-1.98737 0.35974,-5.08508 0.40738,-6.8996 l 0.094,-3.29599 0.28201,2.81257 c 0.15334,1.55528 0.33627,2.47557 0.40737,2.04349 l 0.12537,-0.76911 0.34479,0.76911 c 0.26767,0.58599 0.40036,0.23463 0.50145,-1.4063 0.10791,-1.75154 0.19526,-1.39187 0.40737,1.73593 0.23759,3.50207 0.27911,3.11211 0.40738,-3.47178 0.14823,-7.60872 0.69741,-11.5864 0.94021,-6.74581 l 0.12536,2.50495 0.31341,-1.71392 c 0.26205,-1.49911 0.32985,-1.59122 0.47015,-0.63719 0.0167,0.11342 0.0392,0.17375 0.0627,0.17579 0.10099,-0.13065 0.26426,-1.1012 0.37609,-2.52696 0.20278,-2.58624 0.30498,-1.13487 0.43876,5.80094 0.14001,7.26065 0.22896,8.46866 0.43877,5.51531 l 0.28201,-3.77939 0.18804,3.1422 c 0.18383,3.14095 0.17822,3.12935 0.43877,-1.58206 l 0.25072,-4.70229 0.18804,5.33955 0.18805,5.33952 0.25072,-6.89959 c 0.20419,-5.63401 0.29555,-6.16187 0.37609,-2.76863 0.11894,5.01278 0.94512,5.74784 1.06557,0.94488 l 0.0627,-3.2081 0.3134,2.35118 0.28202,2.35118 0.0627,-1.82383 c 0.0496,-1.12418 0.25674,-1.74562 0.53273,-1.62601 0.28402,0.12305 0.47016,-0.70301 0.47016,-2.24128 0,-1.33505 0.0933,-2.35166 0.21943,-2.26327 0.12607,0.0885 0.38381,1.20329 0.59552,2.48294 0.37699,2.27945 0.41309,2.30462 0.47016,0.63719 0.12917,-3.78046 0.50275,-0.88596 1.15954,8.63531 0.3807,5.51876 0.75809,10.2441 0.84624,10.50356 0.0882,0.25925 0.25945,-5.03797 0.3448,-11.77766 l 0.15665,-12.23892 0.21943,10.67935 c 0.13309,5.87561 0.33076,9.33212 0.43877,7.69099 0.0806,-1.22629 0.1391,-1.94223 0.18804,-2.04348 0.0605,0.19991 0.15174,1.35685 0.28201,3.62554 0.22295,3.88234 0.2766,3.11451 0.43877,-5.18568 0.18945,-9.69706 0.18584,-9.72307 0.43876,-3.77939 l 0.28202,5.97671 0.12536,-6.89959 c 0.15445,-7.18824 0.80933,-7.82598 0.9716,-0.94489 0.0448,1.90095 0.23037,4.43748 0.40738,5.64709 0.30117,2.05705 0.32594,1.93745 0.43876,-1.73592 0.0664,-2.16012 0.29104,-5.2579 0.47016,-6.89959 l 0.3134,-2.98836 0.15665,3.29597 c 0.0697,1.37951 0.11143,2.15254 0.15666,2.26329 0.0565,-0.19392 0.15244,-1.39188 0.28201,-3.82335 l 0.25072,-4.87806 0.15666,5.80094 0.15665,5.82287 0.78346,-5.03184 0.78346,-5.03183 0.12536,3.47177 c 0.14472,3.38339 0.16558,3.3945 0.3134,0.85699 0.10972,-1.88302 0.32283,-2.59285 0.75217,-2.59285 0.35683,0 0.7612,-0.65208 1.03418,-1.64802 0.37418,-1.36452 0.46665,-0.4903 0.56413,5.09779 0.0681,3.90175 0.24802,6.30425 0.43877,5.66909 0.25042,-0.83399 0.3828,-0.43067 0.47015,1.71392 0.10852,2.66619 0.12928,2.76132 0.53274,1.42823 0.23538,-0.77768 0.57175,-3.96475 0.75217,-7.07504 l 0.34479,-5.64708 0.12537,5.33953 c 0.17791,7.00402 0.8347,5.04991 1.00289,-2.98835 0.0911,-4.35732 0.14351,-4.93495 0.25072,-2.28523 0.0807,1.99819 0.35041,3.53766 0.59552,3.53766 0.23839,0 0.40737,-0.29159 0.40737,-0.6372 0,-0.34559 0.22365,-0.61523 0.47016,-0.61523 0.27931,0 0.47116,2.21693 0.53274,5.88882 l 0.094,5.88883 0.25072,-6.8996 0.25072,-6.92161 0.18805,6.59197 c 0.0811,2.76765 0.18262,4.22519 0.25072,4.39465 0.0313,-0.0783 0.0653,-0.42849 0.094,-1.07665 0.0804,-1.80835 0.34269,-3.37586 0.56413,-3.47177 0.22144,-0.0959 0.58799,-1.9302 0.81485,-4.08702 l 0.40737,-3.93325 0.15666,3.47177 0.15665,3.44976 0.25072,-4.2408 0.28201,-4.24079 0.18805,3.29599 0.18804,3.29597 0.25072,-4.08701 0.25073,-4.08703 0.094,4.02114 c 0.0553,2.41846 0.29354,3.99913 0.56412,3.99913 0.24651,0 0.46525,-0.74069 0.50145,-1.64803 l 0.0627,-1.64803 0.3448,1.8897 c 0.18352,1.03686 0.39744,2.94477 0.47015,4.2408 l 0.12536,2.35117 0.28202,-2.68073 0.28231,-2.65872 0.12536,2.65872 0.15665,2.68073 0.56413,-3.29598 c 0.47969,-2.91263 0.54738,-3.10776 0.6581,-1.58207 0.16086,2.21595 0.38601,1.36655 0.84624,-3.14222 0.30067,-2.94602 0.38702,-1.48405 0.50145,7.86678 0.10179,8.3203 0.24169,10.52747 0.47015,8.02005 0.1731,-1.90095 0.36857,-4.10038 0.43877,-4.87805 0.0424,-0.46999 0.0847,-0.74794 0.12536,-0.81297 0.0638,0.0633 0.16177,0.56833 0.3134,1.60401 0.17712,1.20968 0.4138,3.74619 0.50145,5.64709 0.0109,0.23758 0.0178,0.39045 0.0314,0.4614 0.0947,-0.33709 0.2421,-3.59328 0.3448,-8.48133 l 0.25072,-11.46968 0.15665,10.70115 0.15665,10.67935 0.62681,-5.97673 c 0.70935,-7.08136 0.97321,-8.63531 1.53563,-8.63531 0.23137,0 0.4508,-0.74075 0.50145,-1.64802 0.0506,-0.90727 0.23096,0.25988 0.37608,2.59285 l 0.25072,4.24079 0.15666,-5.18569 c 0.11934,-3.74684 0.25182,-4.69875 0.47015,-3.44976 l 0.31341,1.71392 0.15665,-1.71392 0.15665,-1.73593 0.21943,1.73593 0.25073,1.71392 0.28201,-2.19733 c 0.0972,-0.77381 0.16788,-1.24169 0.21943,-1.34033 0.0666,0.11222 0.13088,1.0211 0.21944,2.9224 0.1753,3.76731 0.18352,3.76133 0.43876,-1.88969 0.23488,-5.1999 0.25514,-4.7901 0.43877,5.03183 l 0.21943,10.67935 0.21943,-11.16241 0.25073,-11.14061 0.094,10.32778 c 0.057,5.68836 0.20358,10.29471 0.3134,10.21737 0.51248,-0.3593 1.26355,-5.01193 1.56702,-9.71182 l 0.3448,-5.18569 0.15665,5.18569 0.15665,5.18569 0.28201,-5.97672 0.25073,-5.97672 0.15665,6.61392 0.15665,6.59196 0.50145,-4.87806 c 0.39524,-4.01959 0.52661,-4.56846 0.75217,-3.1422 l 0.25072,1.73592 0.18804,-1.73592 c 0.092,-0.95045 0.26456,0.46357 0.40738,3.1422 0.25453,4.77343 0.28141,4.71107 0.47015,-3.29599 l 0.18804,-8.17403 0.25073,6.61389 c 0.1384,3.62908 0.32875,5.46949 0.40737,4.08703 0.20078,-3.53076 0.81967,-4.7903 0.87753,-1.75786 0.0688,3.60348 0.88726,2.33043 1.28491,-2.02153 l 0.34479,-3.7794 0.25073,2.52696 0.25072,2.50494 0.12536,-2.35116 c 0.0697,-1.29611 0.26366,-2.71014 0.43877,-3.14221 0.30738,-0.75834 0.32835,-0.7381 0.62681,0.28561 0.16999,0.58326 0.35713,1.99728 0.40737,3.14222 0.016,0.36274 0.0656,0.53888 0.094,0.57129 0.0688,-0.14069 0.18163,-1.04543 0.28202,-2.59284 l 0.25072,-4.08701 0.18804,5.03183 0.18804,5.03183 0.25073,-4.24079 c 0.25032,-4.02255 0.27008,-4.0928 0.43876,-1.56014 l 0.18804,2.65873 0.28202,-2.98837 c 0.22043,-2.37888 0.30728,-1.54712 0.43876,4.08703 0.11393,4.88221 0.23859,6.39699 0.43877,4.87806 0.20068,-1.52273 0.36375,-0.0835 0.47016,4.70227 l 0.12536,6.92161 0.34479,-10.30528 c 0.1742,-5.66649 0.44097,-10.39528 0.59552,-10.50356 0.15444,-0.10829 0.32293,2.69017 0.37608,6.21846 l 0.094,6.41619 0.21944,-5.82288 0.25072,-5.80093 0.3448,4.83412 c 0.18483,2.66287 0.36776,6.05216 0.40737,7.53699 0.047,1.76061 0.25273,0.41436 0.59552,-3.88922 0.35442,-4.45049 0.56663,-5.83026 0.6581,-4.2408 0.16196,2.81284 0.3466,2.27734 0.84624,-2.35119 l 0.37608,-3.47176 0.12536,2.52696 c 0.0684,1.38252 0.23338,2.14592 0.37609,1.71391 0.19265,-0.58319 0.35723,-0.33807 0.56413,0.94489 0.23698,1.46963 0.29344,1.24562 0.40737,-1.56014 0.0738,-1.81454 0.2066,-2.98168 0.3134,-2.59285 0.10681,0.38884 0.39745,0.70315 0.62681,0.70315 0.22936,0 0.43767,0.47111 0.47016,1.03278 l 0.0627,1.01077 0.28201,-1.09867 c 0.16548,-0.60484 0.49032,2.52879 0.68949,6.96548 0.54166,12.06806 1.02375,11.66095 1.19094,-0.98876 l 0.15665,-11.16239 0.25072,8.96507 0.25073,8.94329 0.18804,-8.17405 0.18804,-8.15225 0.25072,7.05324 c 0.16448,4.90527 0.33718,6.70328 0.59552,5.84488 0.45221,-1.50318 1.14932,-7.53348 1.28491,-11.1842 l 0.094,-2.65873 0.28201,3.44975 c 0.20088,2.5622 0.31932,3.01699 0.43877,1.73593 0.1411,-1.51336 0.18503,-1.36156 0.47015,1.25244 0.17902,1.6417 0.34851,4.71676 0.37609,6.83372 0.0304,2.3331 0.22976,3.84535 0.50144,3.84535 0.27931,0 0.50205,-2.21729 0.56413,-5.88883 l 0.094,-5.88883 0.25073,7.38301 c 0.1761,5.2205 0.29745,6.37688 0.40737,3.93325 0.0856,-1.90096 0.29836,-6.0083 0.47016,-9.11908 l 0.3134,-5.66909 0.15665,5.03183 0.18805,5.03185 0.25072,-4.2408 c 0.17831,-2.86581 0.32564,-3.62486 0.43876,-2.35119 l 0.15666,1.8897 0.3134,-1.8897 c 0.11965,-0.75805 0.19938,-1.19674 0.25072,-1.27444 0.0534,0.11904 0.0946,0.81973 0.15666,2.21927 0.19255,4.33748 0.75908,9.12398 0.84624,7.14113 0.0626,-1.42318 0.19827,-1.64804 0.9716,-1.64804 0.80943,0 0.90882,-0.20271 0.90882,-2.15337 0,-1.18811 0.12857,-2.64685 0.3134,-3.23011 0.32113,-1.01308 0.3442,-0.99178 0.59552,0.65919 0.0466,0.30637 0.11844,0.49256 0.15665,0.54931 0.0932,-0.10336 0.19206,-1.08031 0.25073,-3.05432 0.12115,-4.07598 0.72168,-4.57796 0.84624,-0.70314 0.0714,2.2208 0.86319,2.10739 1.06557,-0.15385 0.0891,-0.99367 0.25945,1.65492 0.3448,5.88883 0.0923,4.57845 0.25593,7.06519 0.43876,6.13057 0.18022,-0.9212 0.33477,1.24443 0.37609,5.25165 l 0.094,6.8337 h 0.87753 c -0.29104,0 -0.40868,-3.77856 -0.37609,-10.76653 0.0276,-5.91885 0.19707,-12.09127 0.37609,-13.7331 0.0385,-0.35271 0.0601,-0.51309 0.094,-0.4614 0.14773,0.22387 0.24491,4.19031 0.28201,11.2285 0.0474,8.98898 -0.083,13.73309 -0.37608,13.73309 h 0.90882 l 0.094,-8.56992 c 0.082,-7.4955 0.11654,-7.97153 0.34479,-3.84534 l 0.25073,4.72427 0.18804,-5.18568 c 0.15856,-4.63849 0.21853,-4.91645 0.47016,-2.52695 l 0.28201,2.68073 0.15665,-2.68073 0.15665,-2.65873 0.28202,2.04347 0.3134,2.04348 0.12536,-1.58208 c 0.0749,-0.86408 0.26737,-3.19831 0.43877,-5.18569 l 0.3134,-3.6036 0.15665,2.98837 c 0.0732,1.64169 0.26166,3.97599 0.43877,5.18568 l 0.3134,2.19732 0.12537,-3.14221 c 0.0649,-1.72811 0.25744,-4.42144 0.43876,-5.97672 l 0.3448,-2.83451 0.0627,2.43907 c 0.0402,1.38075 0.2787,2.43906 0.53273,2.43906 0.28272,0 0.43877,2.16624 0.43877,5.8669 0,3.2258 0.15986,5.75438 0.34479,5.62513 0.18484,-0.12923 0.42703,-3.15198 0.56413,-6.72381 l 0.25072,-6.50407 0.094,6.06461 c 0.0543,3.78228 0.25253,6.04268 0.53274,6.04268 0.28211,0 0.50325,-2.53237 0.56413,-6.83371 l 0.094,-6.83372 0.25072,5.80093 c 0.15134,3.45343 0.33427,4.93228 0.43877,3.62555 l 0.15665,-2.19732 0.28201,2.19732 c 0.22756,1.727 0.33397,1.02147 0.47016,-3.29598 l 0.18804,-5.49331 0.25072,4.85606 0.25073,4.87805 0.18804,-6.76777 c 0.1384,-5.26112 0.25112,-6.14504 0.47016,-4.065 0.15464,1.46894 0.33697,2.1649 0.40737,1.56014 0.12015,-1.03131 0.13359,-1.04431 0.47016,-0.30764 0.19737,0.43202 0.40487,3.52979 0.47015,6.8996 0.10832,5.59626 0.14502,5.85825 0.43877,2.98836 0.17691,-1.72811 0.39674,-4.42142 0.47016,-5.97671 l 0.12536,-2.81259 0.28201,2.35118 0.3134,2.35118 0.15666,-2.65873 0.15665,-2.68074 0.28201,2.68074 0.28202,2.65873 0.15665,-4.08703 0.18804,-4.08702 0.28201,3.47176 0.25073,3.44977 0.094,-3.38387 c 0.0725,-2.76533 0.20188,-3.36187 0.75217,-3.36187 0.51268,0 0.70674,0.42392 0.75217,1.8018 0.0585,1.76925 0.0427,1.74372 0.40737,-0.6812 0.20489,-1.36192 0.48831,-2.5397 0.59552,-2.61486 0.10721,-0.0751 0.31039,1.40489 0.47016,3.27397 0.41108,4.81085 0.54998,5.33982 0.6268,2.37312 0.0384,-1.4873 0.2757,-2.59285 0.53274,-2.59285 0.24651,0 0.43505,0.47112 0.43877,1.03279 0.005,0.77486 0.10911,0.90698 0.43876,0.5493 0.28813,-0.31262 0.46544,1.95227 0.50145,6.74582 0.0299,3.97466 0.19476,8.50874 0.37608,10.06339 0.23197,1.98997 0.3805,-0.58699 0.50145,-8.65711 l 0.18804,-11.46968 0.21943,8.32804 0.25073,8.32803 0.21943,-9.88762 0.18804,-9.91009 0.25073,7.55879 c 0.13669,4.14749 0.33426,6.61658 0.43876,5.4933 0.15856,-1.70462 0.23347,-1.41113 0.43877,1.73593 0.23738,3.63954 0.25684,3.49751 0.68949,-3.93324 l 0.43876,-7.71279 0.25072,4.08702 c 0.14061,2.3483 0.32093,3.36665 0.40738,2.37311 0.14171,-1.627 0.15926,-1.67256 0.47016,-0.63719 0.30578,1.01871 0.34268,0.96359 0.43876,-0.63718 0.0822,-1.37176 0.18534,-1.56836 0.47016,-0.94489 l 0.34479,0.79104 0.094,-0.79104 0.094,-0.76909 0.3448,0.76909 c 0.28482,0.62355 0.38782,0.44889 0.47015,-0.92287 0.096,-1.60078 0.13299,-1.65591 0.43877,-0.63719 l 0.3134,1.09866 0.0627,-1.07666 c 0.0325,-0.59043 0.22255,-0.9645 0.40738,-0.83497 0.18483,0.12952 0.45632,3.51121 0.59552,7.51519 l 0.25072,7.27332 0.18804,-10.83263 0.18805,-10.83264 0.21943,10.83264 c 0.22455,10.06691 0.27539,10.37629 0.43876,4.39464 0.0897,-3.28523 0.14843,-4.82046 0.21944,-5.00989 0.0529,0.11581 0.12115,0.82064 0.21943,2.02154 0.36224,4.43029 1.32753,5.96132 1.34769,2.13137 0.0199,-3.80858 0.91123,-3.2822 1.03418,0.61524 0.056,1.77137 0.21011,-0.87724 0.34479,-5.88882 l 0.25073,-9.09728 0.15665,6.59198 0.15665,6.59197 0.56413,-3.44976 0.53274,-3.44977 0.15665,7.69099 0.15665,7.69099 0.25072,-6.59199 c 0.24862,-6.5194 0.25333,-6.54218 0.43877,-2.35116 l 0.18804,4.2408 0.28201,-3.62555 c 0.12948,-1.73619 0.20409,-2.61401 0.25073,-2.74662 0.0366,0.0455 0.0566,0.64605 0.094,1.73593 0.12977,3.7642 0.96518,3.2623 1.06557,-0.63719 0.0623,-2.41834 0.14221,-2.79184 0.31341,-1.49419 l 0.25072,1.73592 0.28201,-1.73592 0.28202,-1.71391 0.094,2.04347 c 0.0543,1.12327 0.26616,2.60473 0.47015,3.296 0.2781,0.94262 0.42112,0.12108 0.53274,-3.296 l 0.12536,-4.57043 0.28201,6.13057 0.25073,6.13058 0.15665,-4.87807 c 0.0872,-2.67862 0.23789,-4.54175 0.34479,-4.15291 0.42433,1.54446 1.03419,0.57721 1.03419,-1.64803 0,-1.88519 0.12034,-2.35117 0.6581,-2.35117 0.55038,0 0.67966,0.59663 0.75216,3.36188 l 0.094,3.38387 0.25072,-3.44976 0.25072,-3.47177 0.3448,2.68073 c 0.18343,1.46887 0.381,5.21726 0.43876,8.32803 0.0818,4.40387 0.15525,3.46594 0.3448,-4.24079 l 0.25072,-9.91011 0.15665,9.91011 c 0.0989,5.4436 0.31902,8.9679 0.47016,7.84426 0.29324,-2.1808 0.62851,-2.04066 1.22232,0.48342 0.25654,1.09058 0.43987,-1.21152 0.59552,-7.53699 0.24009,-9.76387 0.85065,-10.47614 0.94021,-1.09867 l 0.0314,5.49331 0.59552,-2.98837 c 0.32985,-1.64168 0.6589,-3.12314 0.72088,-3.29598 0.0749,0.16679 0.24481,1.40067 0.37609,2.98837 l 0.28201,3.29598 0.18804,-4.2408 c 0.15585,-3.92375 0.1736,-4.06958 0.43877,-1.8897 l 0.28201,2.35117 0.12536,-2.04347 c 0.0732,-1.12328 0.29004,-2.96376 0.47016,-4.08703 l 0.34479,-2.04347 0.094,1.73592 c 0.19988,3.05691 0.8316,3.58687 0.94022,0.79103 0.17029,-4.38016 0.74815,-1.13873 0.90882,5.03185 l 0.15665,5.64709 0.25072,-4.87807 0.28202,-4.85605 0.18804,7.38301 c 0.14492,5.87961 0.209,6.71411 0.40737,4.08702 0.1374,-1.81889 0.3816,-2.96002 0.53274,-2.52695 0.15083,0.432 0.34048,-1.6107 0.40737,-4.5485 0.067,-2.9378 0.23759,-7.04549 0.40738,-9.11908 0.26055,-3.1813 0.35573,-2.34871 0.50145,5.33954 0.15725,8.29147 0.20248,8.67257 0.43876,4.24079 0.19687,-3.69261 0.27479,-4.2917 0.40738,-2.50494 l 0.18804,2.35117 0.28201,-2.35117 0.28202,-2.35117 0.18804,1.71391 c 0.10801,1.07996 0.27379,0.1459 0.43876,-2.50494 0.23398,-3.76 0.26948,-3.27919 0.43877,4.24079 l 0.18804,8.48133 0.25073,-6.89961 0.25072,-6.9216 0.21943,9.88761 0.18804,9.9101 0.25073,-12.26142 c 0.11653,-5.95288 0.19516,-8.8139 0.25072,-9.18446 0.0376,0.31388 0.0748,1.79835 0.12536,4.30675 0.15966,7.92232 0.77343,11.38812 1.00289,5.66911 l 0.12537,-3.29599 0.25072,3.29599 c 0.20178,2.68072 0.32634,3.06472 0.59552,2.04346 0.18212,-0.69126 0.34208,-2.1995 0.34479,-3.33993 0.003,-1.14042 0.11774,-3.18601 0.28201,-4.5485 0.29526,-2.44926 0.32033,-2.46641 0.87754,-1.38435 0.30989,0.60197 0.57666,1.772 0.59551,2.59285 0.0242,1.05956 0.21202,1.49417 0.6581,1.49417 0.84343,0 1.58878,-1.6194 1.66099,-3.58167 0.0557,-1.51154 0.0961,-1.54255 0.40738,-0.50541 0.26597,0.8861 0.33316,0.64633 0.40737,-1.25244 0.0507,-1.2961 0.27279,-3.00172 0.47016,-3.7794 0.21472,-0.84603 0.40296,3.64194 0.47016,11.16241 0.0672,7.52048 0.25533,11.98649 0.47015,11.14061 0.19737,-0.77767 0.38983,-2.82031 0.43877,-4.5485 0.0489,-1.72811 0.23036,-4.12984 0.40737,-5.33954 l 0.31341,-2.19732 0.18804,2.65872 c 0.1058,1.67427 0.24972,0.22515 0.40737,-3.91122 l 0.25073,-6.61392 0.15665,5.51532 c 0.08,3.02423 0.28873,6.77254 0.47015,8.32803 l 0.31341,2.81258 0.12536,-4.08702 c 0.10761,-4.40477 1.0746,-8.84486 1.47305,-6.74582 0.11974,0.63107 0.26246,-0.0494 0.34479,-1.58208 0.0789,-1.46886 0.24531,-2.20963 0.3448,-1.64802 0.10961,0.6194 0.42432,1.03277 0.81485,1.03277 0.50094,0 0.65629,-0.57594 0.72088,-2.59283 0.0615,-1.92205 0.12867,-2.16795 0.25072,-0.9449 0.0905,0.90728 0.36184,1.64803 0.59552,1.64803 0.23357,0 0.45551,0.47111 0.50144,1.03279 0.0459,0.5616 0.22144,-0.1791 0.37609,-1.64803 0.19586,-1.86003 0.34108,-0.10738 0.47016,5.80093 l 0.15745,8.48132 0.25072,-9.27306 0.25073,-9.27305 0.18804,9.91009 c 0.15966,8.12483 0.25995,9.10431 0.47015,5.49332 l 0.25073,-4.39465 0.21943,4.39465 c 0.21763,4.25127 0.2431,4.17765 0.37609,-2.35117 0.18072,-8.87578 0.77313,-11.86625 0.9716,-4.87806 0.085,2.99623 0.23407,4.32595 0.37608,3.29598 0.23378,-1.69465 0.23919,-1.67411 0.50145,0.94489 l 0.28201,2.68073 0.12536,-3.62555 c 0.0911,-2.3113 0.25163,-3.20837 0.43877,-2.50494 l 0.28201,1.09866 0.37609,-1.4063 c 1.01162,-4.02661 1.06397,-4.06254 1.22232,-0.63719 0.13269,2.87116 0.18504,2.57085 0.40738,-2.35116 l 0.25072,-5.6691 0.18804,7.55879 c 0.15856,6.43932 0.21543,6.99678 0.43877,3.91124 l 0.25072,-3.60361 0.25073,3.60361 0.21943,3.62555 0.094,-3.53765 c 0.0527,-1.94412 0.27058,-3.53767 0.50145,-3.53767 0.23086,0 0.49603,0.47112 0.59551,1.03279 0.0994,0.5616 0.25705,-0.89707 0.3448,-3.2301 l 0.15665,-4.24081 0.28201,3.29599 c 0.14994,1.81453 0.32785,2.98168 0.37609,2.59285 0.0482,-0.38884 0.28633,-0.70315 0.53274,-0.70315 0.24651,0 0.47226,-0.80812 0.50144,-1.80181 0.0436,-1.48693 0.0946,-1.65471 0.37609,-0.87893 0.29314,0.80785 0.3816,0.71194 0.47015,-0.76909 l 0.094,-1.73593 0.53274,1.73593 c 0.49453,1.55134 0.57887,1.61526 0.78346,0.76909 0.12105,0.24251 0.22515,0.44664 0.3448,0.68121 v -14.15077 c -0.11494,0.90403 -0.23007,1.78037 -0.3448,2.72468 -0.007,-0.0174 -0.0241,-0.0399 -0.0314,-0.0879 -0.14472,-0.95045 -0.47437,-1.73593 -0.72088,-1.73593 -0.24651,0 -0.57616,0.78541 -0.72088,1.73593 l -0.25072,1.73591 -0.15665,-1.73591 -0.12537,-1.73593 -0.3134,1.73593 -0.3134,1.73591 -0.0626,-1.64803 c -0.0401,-0.90726 -0.27058,-1.64803 -0.50145,-1.64803 -0.23087,0 -0.49603,-0.4711 -0.59552,-1.03277 -0.0994,-0.56167 -0.23768,0.53811 -0.3134,2.43907 -0.0721,1.81031 -0.14161,2.61976 -0.21943,2.68073 -0.0578,-0.0703 -0.13419,-0.46232 -0.25073,-1.12067 -0.18353,-1.03686 -0.34931,-2.83269 -0.37608,-3.99913 -0.0267,-1.16644 -0.23929,-2.10943 -0.47016,-2.10943 -0.23086,0 -0.49603,-0.47111 -0.59552,-1.03277 -0.13128,-0.74154 -0.23959,-0.55176 -0.34479,0.70313 l -0.12536,1.73593 -0.31341,-1.73593 c -0.21442,-1.22669 -0.35813,-0.16615 -0.47015,3.62556 -0.13981,4.73376 -0.16959,5.01109 -0.40738,2.50494 l -0.28201,-2.83451 -0.21943,2.52696 -0.21944,2.50494 -0.15665,-3.29599 c -0.0742,-1.81451 -0.28763,-3.65499 -0.47016,-4.08701 -0.28401,-0.6722 -0.3842,-0.53404 -0.78345,0.94488 -0.41059,1.52091 -0.49042,1.02871 -0.62681,-4.08702 -0.14813,-5.55737 -0.1734,-5.41554 -0.40738,3.29599 l -0.25072,9.11906 -0.094,-7.22901 c -0.0587,-3.97467 -0.22335,-7.74584 -0.37609,-8.39414 -0.3121,-1.32373 -1.06557,-1.60324 -1.06557,-0.39551 0,0.48876 -0.23989,0.7691 -0.6581,0.7691 -0.57646,0 -0.70192,1.091 -0.78346,7.62489 -0.0524,4.19066 -0.1402,6.09858 -0.21943,4.2408 -0.0807,-1.89378 -0.35272,-3.36187 -0.59552,-3.36187 -0.23819,0 -0.43876,0.33702 -0.43876,0.7691 0,0.43202 -0.19226,0.79104 -0.43877,0.79104 -0.24651,0 -0.4841,-0.80813 -0.53274,-1.80181 -0.0549,-1.11899 -0.2083,-0.49263 -0.37608,1.64802 l -0.25072,3.44977 -0.15666,-3.44977 c -0.14923,-3.14529 -0.19937,-3.29767 -0.47015,-1.58207 l -0.31341,1.8897 -0.12536,-2.50495 -0.15665,-2.52696 -0.3134,1.73593 c -0.23458,1.34222 -0.3446,0.73591 -0.47016,-2.68074 l -0.15665,-4.39464 -0.25073,3.47176 -0.28201,3.44977 -0.15665,-4.2408 c -0.14462,-3.74158 -0.23117,-3.12893 -0.68949,5.18568 l -0.53274,9.42634 -0.094,-9.75611 c -0.0568,-5.35719 -0.26616,-10.29543 -0.47015,-10.98663 l -0.37609,-1.25244 -0.094,1.56014 c -0.0576,0.86402 -0.25062,2.00845 -0.43876,2.52696 -0.30759,0.8475 -0.38421,0.77535 -0.50145,-0.63719 l -0.12536,-1.56014 -0.28202,2.04348 c -0.27148,1.88921 -0.29374,1.76032 -0.43876,-1.58208 l -0.15665,-3.6036 -0.31341,4.70227 c -0.17099,2.59221 -0.38762,7.32817 -0.47015,10.52535 l -0.15666,5.82288 -0.25072,-4.24079 c -0.20038,-3.38593 -0.30638,-3.87798 -0.50145,-2.37312 l -0.21943,1.88969 -0.094,-2.43906 c -0.0466,-1.33927 -0.27058,-2.41705 -0.50145,-2.41705 -0.23086,0 -0.49603,-0.47111 -0.59551,-1.03278 -0.0994,-0.56167 -0.24481,0.47068 -0.31341,2.28522 -0.0687,1.81454 -0.28191,3.72237 -0.47015,4.2408 l -0.3448,0.94489 -0.0627,-1.14262 c -0.0291,-0.62389 -0.19125,-1.81376 -0.37608,-2.65872 l -0.3448,-1.53814 -0.25072,1.8677 c -0.19296,1.39519 -0.28893,0.85531 -0.3448,-2.10943 -0.0456,-2.42606 -0.26135,-3.99913 -0.53273,-3.99913 -0.24651,0 -0.43877,0.26966 -0.43877,0.61526 0,0.34558 -0.19225,0.63718 -0.43876,0.63718 -0.2755,0 -0.50225,1.90137 -0.56413,4.94394 -0.0832,4.09229 -0.14061,3.5255 -0.3448,-3.2301 l -0.25072,-8.15225 -0.18804,7.537 -0.18804,7.53699 -0.25073,-6.9216 -0.25072,-6.89959 -0.18804,5.18569 c -0.16357,4.65142 -0.21783,4.90111 -0.47016,2.50494 -0.23066,-2.19121 -0.30889,-1.6019 -0.43876,3.29599 l -0.15666,5.97672 -0.37608,-5.18568 c -0.2095,-2.85139 -0.55219,-7.65443 -0.75217,-10.67936 l -0.37608,-5.4933 -0.15666,7.383 -0.15665,7.38302 -0.25072,-6.50409 c -0.14061,-3.57147 -0.41059,-6.59422 -0.59552,-6.7238 -0.18483,-0.1296 -0.38411,2.71363 -0.43876,6.32829 l -0.094,6.57003 -0.25072,-7.22901 c -0.13719,-3.97467 -0.29014,-6.27606 -0.34479,-5.11974 -0.0547,1.15625 -0.28633,2.20042 -0.53274,2.30716 -0.25674,0.11124 -0.47016,1.73176 -0.47016,3.80134 0,4.1676 -0.87883,8.76046 -1.37897,7.18542 l -0.28222,-0.94489 -0.0627,0.87893 c -0.0333,0.54205 -0.29916,0.857 -0.72088,0.857 -0.46544,0 -0.70333,0.37062 -0.75217,1.18655 -0.0703,1.17551 -0.1754,0.55879 -1.03418,-5.33954 -0.19496,-1.33927 -0.54186,-2.43906 -0.75217,-2.43906 -0.21031,0 -0.42182,-0.3143 -0.47016,-0.70315 -0.0482,-0.38883 -0.19476,0.77832 -0.34479,2.59284 -0.24541,2.96924 -0.29716,2.72181 -0.37609,-2.43906 -0.0547,-3.57231 -0.25363,-5.73497 -0.53273,-5.73497 -0.24651,0 -0.46635,0.44917 -0.47016,1.01076 -0.005,0.77486 -0.10911,0.90699 -0.43876,0.5493 -0.33768,-0.36627 -0.44138,-0.2492 -0.50145,0.48341 -0.0527,0.64161 -0.16688,0.43208 -0.37608,-0.63719 l -0.31341,-1.56014 -0.15665,1.25245 c -0.11874,0.99832 -0.2085,0.80221 -0.43877,-0.94489 -0.18513,-1.40453 -0.33486,0.81333 -0.43876,6.13057 -0.1045,5.35176 -0.27359,7.36402 -0.43877,5.64709 l -0.25072,-2.65873 -0.3448,2.04348 c -0.18483,1.12327 -0.39223,2.67216 -0.47015,3.44977 -0.0778,0.77767 -0.2073,-0.1426 -0.28201,-2.04349 -0.13399,-3.41074 -0.12848,-3.43084 -0.56413,-1.64803 -0.2428,0.99369 -0.59442,1.80182 -0.78346,1.80182 -0.18905,0 -0.50857,-1.52618 -0.72088,-3.38389 -0.33868,-2.96297 -0.41791,-3.16393 -0.59552,-1.64803 l -0.21943,1.73593 -0.28202,-1.73593 c -0.2436,-1.4598 -0.31932,-1.18366 -0.43876,1.73593 -0.0735,1.79604 -0.15003,2.61463 -0.21943,2.70274 -0.0566,-0.1061 -0.13198,-0.55597 -0.25073,-1.29646 -0.18012,-1.12327 -0.39092,-2.96375 -0.47015,-4.08702 -0.1032,-1.46457 -0.21733,-0.88561 -0.40738,2.04348 l -0.25072,4.08702 -0.094,-3.38389 c -0.0543,-1.99953 -0.26747,-3.36186 -0.53274,-3.36186 -0.24651,0 -0.46865,-0.80813 -0.50145,-1.8018 -0.0584,-1.76672 -0.0739,-1.76722 -0.43876,0.65919 -0.52772,3.50918 -0.77915,3.60593 -0.90882,0.35157 l -0.094,-2.8345 -0.28202,2.04346 c -0.2098,1.57 -0.33687,1.82327 -0.53273,1.09867 -0.14021,-0.51843 -0.30288,0.55857 -0.37609,2.37311 -0.12616,3.12898 -0.15364,3.19431 -0.47015,1.40629 -0.18353,-1.03686 -0.42062,-3.66275 -0.50145,-5.82287 -0.12977,-3.46834 -0.15394,-3.14608 -0.37609,2.68073 l -0.25072,6.59197 -0.18804,-5.18569 -0.18804,-5.18567 -0.28202,4.08701 -0.25072,4.08703 -0.18814,-6.43813 -0.18805,-6.43813 -0.25072,5.18569 -0.28201,5.18569 -0.15665,-5.82288 c -0.14733,-5.20516 -0.20209,-5.53374 -0.50145,-3.1422 -0.18383,1.46892 -0.38932,5.93523 -0.47016,9.9101 l -0.15665,7.20722 -0.25072,-9.8876 -0.21943,-9.88762 -0.12537,8.87719 c -0.0564,4.88194 -0.25583,8.87719 -0.47015,8.87719 -0.44689,0 -0.92246,-1.71784 -1.03418,-3.77939 -0.0629,-1.1599 -0.1025,-1.23317 -0.25073,-0.39551 -0.14522,0.82049 -0.39123,1.03277 -1.22232,1.03277 -0.9,0 -1.075,-0.23457 -1.41027,-1.66996 -0.37117,-1.5889 -0.41069,-1.50782 -0.6581,1.66996 l -0.25072,3.29599 -0.15665,-4.2408 c -0.08,-2.33296 -0.26778,-6.37287 -0.43877,-8.96508 l -0.3134,-4.70229 -0.15666,6.43813 c -0.12676,5.4879 -0.18533,6.03291 -0.47015,3.75746 -0.18383,-1.46893 -0.40748,-4.3644 -0.47016,-6.43813 l -0.094,-3.75746 -0.34479,2.65873 c -0.18383,1.46895 -0.39284,4.65601 -0.47016,7.07505 l -0.12536,4.39464 -0.28202,-5.4933 c -0.25052,-5.3761 -0.23778,-5.3053 -0.40737,3.6036 l -0.18804,9.11908 -0.28202,-5.71305 c -0.14903,-3.14425 -0.38611,-5.82991 -0.56412,-5.95479 -0.17802,-0.1248 -0.36626,2.03961 -0.40738,4.79018 l -0.094,4.98796 -0.25072,-3.82335 c -0.30358,-4.30606 -0.94021,-5.57889 -0.94021,-1.8897 0,2.80209 -0.83842,3.35371 -0.94022,0.61526 -0.0658,-1.77024 -0.1415,-1.63165 -0.65809,1.7139 -0.50496,3.26983 -1.09697,1.61962 -1.09697,-3.09819 0,-2.62097 -0.0821,-4.68863 -0.21943,-4.59237 -0.1373,0.0963 -0.43185,2.62519 -0.62681,5.62516 l -0.34479,5.44936 -0.12537,-5.03185 c -0.0698,-2.76496 -0.24711,-4.51607 -0.40737,-3.91123 l -0.3134,1.09866 -0.31341,-1.53813 c -0.17701,-0.84496 -0.34519,-2.12419 -0.37608,-2.83451 l -0.0627,-1.29645 -0.3448,1.42822 c -0.19737,0.77768 -0.38912,3.06725 -0.40737,5.0978 -0.0201,2.23627 -0.19868,3.6915 -0.47016,3.6915 -0.24651,0 -0.4841,-0.80813 -0.53274,-1.8018 -0.0549,-1.11899 -0.2083,-0.49263 -0.37608,1.64802 l -0.25072,3.44977 -0.15666,-5.03185 c -0.0851,-2.90349 -0.26476,-4.54639 -0.43876,-3.91123 -0.23037,0.84082 -0.42523,0.23591 -0.78346,-2.52696 l -0.47016,-3.60361 -0.15665,2.65873 -0.15665,2.68073 -0.28202,-3.29599 -0.25072,-3.29598 -0.18804,3.44977 -0.15665,3.44976 -0.28202,-2.83451 c -0.0511,-0.51858 -0.11693,-0.82387 -0.15665,-0.92288 -0.0963,0.14407 -0.19707,1.82747 -0.25072,5.33953 -0.1746,11.42047 -0.82548,11.19334 -0.9716,-0.32964 -0.1038,-8.19373 -0.17852,-9.30962 -0.43877,-6.10856 -0.17571,2.16013 -0.50686,5.5495 -0.72088,7.537 -0.36716,3.41088 -0.3806,3.4935 -0.62681,1.71391 l -0.28201,-1.86768 -0.0627,1.8018 c -0.1022,2.45194 -0.83621,2.28416 -1.06557,-0.24174 -0.27991,-3.08188 -1.25974,-3.42593 -1.3163,-0.4614 -0.083,4.35027 -0.74385,1.02722 -0.84624,-4.2408 -0.0594,-3.0615 -0.23047,-4.66107 -0.43877,-4.08702 -0.2423,0.66756 -0.39544,0.028 -0.50144,-2.19733 -0.12055,-2.52949 -0.20239,-2.02069 -0.40738,2.65873 l -0.25072,5.82287 -0.18804,-8.32803 c -0.18494,-8.06717 -0.18724,-8.19023 -0.43877,-3.47177 l -0.25072,4.87806 -0.094,-5.05386 c -0.0518,-2.78409 -0.25073,-5.72428 -0.40738,-6.52601 l -0.28201,-1.45024 h -0.31341 l -0.094,10.43747 -0.12536,10.45927 -0.21943,-8.8111 -0.25073,-8.7893 -0.34479,6.8996 c -0.52311,10.45435 -0.86479,14.30476 -1.28491,14.30476 -0.2095,0 -0.37608,-1.05507 -0.37608,-2.35117 0,-3.65734 -0.87523,-2.88542 -0.9716,0.85698 -0.0457,1.77685 -0.15996,2.49223 -0.25073,1.58208 -0.0906,-0.90727 -0.36204,-1.64802 -0.59561,-1.64802 -0.23358,0 -0.43656,-0.7627 -0.47016,-1.66997 -0.0335,-0.90727 -0.14392,-1.31172 -0.25072,-0.92288 -0.35633,1.29688 -1.04432,0.72557 -1.12826,-0.94488 l -0.094,-1.64803 -0.15665,1.64803 c -0.0905,0.90726 -0.34339,1.64802 -0.56413,1.64802 -0.22073,0 -0.47356,-0.74069 -0.56413,-1.64802 -0.13137,-1.31615 -0.19004,-1.12011 -0.3134,1.01076 -0.085,1.46894 -0.24531,2.20964 -0.34479,1.64804 -0.0994,-0.56167 -0.3462,-1.01078 -0.56413,-1.01078 -0.21803,0 -0.47357,-0.74069 -0.56413,-1.64802 -0.10761,-1.07848 -0.22094,-0.56013 -0.3134,1.49418 -0.35352,7.852 -0.77554,7.7627 -0.94021,-0.17578 -0.15936,-7.68326 -0.18885,-7.81546 -0.43877,-3.29599 -0.19687,3.55888 -0.29645,4.1877 -0.43877,2.52695 -0.13468,-1.57138 -0.25393,-0.77915 -0.43876,2.81258 l -0.25072,5.03183 -0.21944,-5.03183 -0.18804,-5.0099 -0.25072,6.74582 -0.25073,6.74582 -0.15675,-8.48131 c -0.0909,-4.75945 -0.29003,-7.93428 -0.47015,-7.22903 -0.23799,0.93187 -0.38371,0.32794 -0.50145,-2.35118 l -0.15665,-3.6036 -0.21944,5.18568 -0.25072,5.18568 -0.43876,-5.82287 -0.47016,-5.80093 -0.21943,11.77765 -0.25073,11.77766 -0.18804,-9.58033 c -0.1407,-6.97933 -0.25614,-8.60789 -0.43876,-5.97672 -0.15746,2.26898 -0.33798,3.21743 -0.50145,2.52696 -0.17601,-0.74372 -0.31902,-0.24604 -0.40738,1.56014 -0.10219,2.0872 -0.18072,2.44151 -0.43876,1.58206 -0.23588,-0.78555 -0.36876,-0.11778 -0.47016,2.35117 -0.0824,2.00853 -0.21773,2.7604 -0.3134,1.80181 -0.11744,-1.1772 -0.35182,-1.64803 -0.81485,-1.64803 -0.39133,0 -0.67675,-0.33581 -0.72088,-0.85698 -0.0401,-0.47527 -0.21001,-0.0936 -0.37609,0.85698 l -0.3134,1.73591 -0.094,-1.42821 c -0.0544,-0.77767 -0.26617,-1.96755 -0.47016,-2.65872 -0.36686,-1.24337 -0.35643,-1.23804 -0.40737,0.54928 -0.0283,0.99369 -0.23107,1.80181 -0.43877,1.80181 -0.2077,0 -0.50225,-2.58265 -0.6581,-5.73498 -0.17099,-3.45693 -0.47517,-5.78013 -0.75217,-5.84488 -0.25262,-0.0591 -0.47015,-0.38708 -0.47015,-0.74708 0,-0.36003 -0.14111,-0.56021 -0.31341,-0.43947 -0.17219,0.1208 -0.44077,3.79408 -0.59551,8.15224 l -0.25073,7.91037 -0.15665,-8.78929 c -0.14642,-10.18575 -0.68247,-15.26666 -0.90882,-8.48133 -0.0952,2.85237 -0.21893,3.602 -0.40737,2.50495 -0.22856,-1.33014 -0.32504,-0.99494 -0.6581,2.19733 -0.21633,2.07378 -0.5538,6.18105 -0.72088,9.11907 -0.14512,2.55233 -0.22746,3.77088 -0.28202,3.88922 -0.033,-0.1454 -0.0668,-0.82056 -0.094,-1.93364 -0.068,-2.76708 -0.20148,-3.36187 -0.75217,-3.36187 -0.50545,0 -0.68096,0.40768 -0.72088,1.64803 -0.0453,1.41001 -0.11503,1.50888 -0.40737,0.70314 l -0.3448,-0.94488 -0.094,0.94488 -0.094,0.94489 -0.34479,-0.94489 c -0.29656,-0.81712 -0.35493,-0.70708 -0.47016,0.79104 -0.11232,1.46 -0.19115,1.24738 -0.47015,-1.27444 -0.53184,-4.80727 -1.20889,-8.56781 -1.69239,-9.58034 -0.35572,-0.74491 -0.46484,-0.11539 -0.53273,2.98835 -0.0472,2.16014 -0.22605,5.19047 -0.40738,6.74582 -0.29966,2.5707 -0.32604,2.32882 -0.43876,-2.81256 -0.14612,-6.663 -0.76702,-6.0436 -0.94021,0.94488 l -0.12537,4.70227 -0.34479,-3.25204 c -0.19577,-1.78915 -0.44699,-3.32369 -0.56413,-3.40588 -0.11714,-0.0821 -0.34168,0.81951 -0.50144,1.9996 -0.50245,3.71182 -0.59683,3.28593 -0.75217,-4.28483 l -0.12537,-7.38301 -0.25072,7.38301 c -0.13699,4.06109 -0.32032,5.90157 -0.37608,4.08703 -0.27991,-9.10993 -0.97461,-13.54888 -1.53563,-9.60212 -0.1016,0.71446 -0.23929,0.21964 -0.28202,-1.16456 -0.0427,-1.37872 -0.24771,-2.43906 -0.50144,-2.43906 -0.28773,0 -0.50275,3.67751 -0.56413,10.28347 -0.0803,8.65781 -0.12847,9.4383 -0.34479,4.94395 -0.19487,-4.04997 -0.29917,-4.71845 -0.43877,-2.81258 l -0.18804,2.50495 -0.25073,-3.44976 -0.28201,-3.44977 -0.18804,3.44977 -0.15665,3.44976 -0.28202,-2.50495 -0.28201,-2.52695 -0.15675,3.31799 -0.18804,3.29599 -0.28202,-3.29599 -0.25072,-3.31799 -0.18804,2.52695 -0.18805,2.50495 -0.15665,-2.43906 c -0.11754,-1.87487 -0.28041,-2.41705 -0.78346,-2.41705 -0.4853,0 -0.6581,-0.41522 -0.6581,-1.58209 0,-0.86408 -0.19225,-1.56013 -0.43876,-1.56013 -0.2763,0 -0.49222,1.83606 -0.53274,4.79016 -0.0934,6.79266 -0.67655,3.01818 -0.84624,-5.42741 -0.0874,-4.34768 -0.23217,-5.67768 -0.40737,-4.08703 -0.0926,0.83977 -0.16167,1.36051 -0.21944,1.45023 -0.0855,-0.0796 -0.16969,-1.14246 -0.34479,-3.49378 -0.18012,-2.41937 -0.50817,-5.24748 -0.72088,-6.28434 -0.35543,-1.73338 -0.39665,-1.55831 -0.53274,2.19732 -0.1393,3.84184 -0.16858,3.94632 -0.40737,1.58207 -0.21412,-2.11906 -0.31321,-1.58298 -0.59552,3.44977 -0.18413,3.2834 -0.36014,7.45824 -0.40738,9.27306 l -0.094,3.29598 -0.28201,-2.8345 -0.28201,-2.81258 -0.12536,3.1422 c -0.2764,6.51343 -0.79219,7.2234 -0.90883,1.25244 -0.0663,-3.38929 -0.25503,-5.34881 -0.47015,-4.87806 l -0.37609,0.79104 -0.0314,-0.7691 c -0.0246,-0.41759 -0.17821,-0.66609 -0.34479,-0.54929 -0.16658,0.11679 -0.5532,2.66766 -0.84624,5.64708 l -0.53274,5.40542 -0.15665,-4.08702 -0.12536,-4.08703 -0.28202,3.318 -0.28201,3.29599 -0.18804,-3.29599 c -0.18052,-3.26469 -0.18273,-3.2609 -0.43877,1.71391 l -0.25072,5.03184 -0.094,-4.94394 c -0.0536,-2.79549 -0.26587,-4.94395 -0.50145,-4.94395 -0.22936,0 -0.50766,0.31431 -0.59552,0.70314 -0.13328,0.59044 -0.92125,-5.4244 -1.41026,-10.76653 -0.0622,0.4832 -0.15335,3.09144 -0.18805,6.67986 -0.0461,4.76142 -0.25523,8.08616 -0.50144,8.08616 -0.23007,0 -0.49282,0.38173 -0.59552,0.85699 -0.1027,0.47525 -0.26266,-0.60252 -0.3448,-2.41706 l -0.15665,-3.31799 -0.28201,2.52696 c -0.24621,2.18094 -0.31461,1.81748 -0.47016,-2.68074 l -0.15665,-5.18568 -0.25072,5.97672 c -0.2059,4.83763 -0.29265,5.35415 -0.40738,2.68073 -0.0953,-2.21862 -0.26015,-3.05516 -0.50144,-2.52696 -0.22696,0.49684 -0.39384,-0.76692 -0.47016,-3.44975 l -0.12536,-4.24081 -0.3134,4.08703 c -0.17661,2.24654 -0.38993,4.22181 -0.47016,4.39464 -0.0801,0.17284 -0.26507,-1.95924 -0.40738,-4.72428 -0.25844,-5.02213 -0.27579,-5.01875 -0.47015,3.14221 l -0.18804,8.17404 -0.25073,-7.53699 -0.25072,-7.53701 -0.15665,5.80095 c -0.084,3.19704 -0.28192,6.24933 -0.47016,6.76775 l -0.34479,0.94489 -0.12536,-0.94489 -0.094,-0.94488 -0.34479,0.94488 -0.3448,0.94489 -0.12536,-0.94489 c -0.0867,-0.64843 -0.23096,-0.39783 -0.43876,0.79104 -0.30117,1.72306 -0.30328,1.7028 -0.37609,-0.72509 -0.0755,-2.51795 -0.75608,-3.32684 -1.06557,-1.25243 -0.0967,0.64802 -0.25123,-0.0928 -0.3448,-1.64803 -0.14662,-2.43914 -0.21562,-2.13882 -0.43876,2.19732 l -0.25072,5.03184 -0.15666,-6.59197 c -0.0907,-3.89534 -0.30648,-6.16453 -0.50144,-5.51532 -0.23358,0.77789 -0.36175,0.0512 -0.47016,-2.50495 l -0.15665,-3.60361 -0.25072,4.85605 -0.28202,4.87807 -0.094,-4.79017 c -0.0542,-2.75317 -0.25804,-4.79017 -0.50144,-4.79017 -0.23298,0 -0.48901,0.67333 -0.56413,1.49417 -0.13599,1.48632 -0.14011,1.47049 -0.87753,-1.03276 l -0.75217,-2.50496 -0.0627,2.35117 c -0.0636,1.69198 -0.21252,2.14607 -0.47016,1.58207 -0.2093,-0.4583 -0.3814,1.67406 -0.40737,5.14174 -0.0246,3.26906 -0.19557,5.83962 -0.37609,5.71304 -0.18052,-0.12656 -0.44879,-2.43132 -0.59552,-5.14173 l -0.25072,-4.94395 -0.15665,5.97672 c -0.11654,4.44902 -0.22274,5.4185 -0.43877,3.7794 -0.25283,-1.91817 -0.32353,-2.02414 -0.43876,-0.79103 -0.12406,1.32698 -0.14903,1.3461 -0.47016,0.4614 -0.29385,-0.80953 -0.3456,-0.69308 -0.43876,0.79103 -0.0857,1.36487 -0.2405,0.9124 -0.72088,-2.17538 -0.33447,-2.15021 -0.68969,-4.05812 -0.78346,-4.24079 -0.003,-0.006 -0.0281,0.003 -0.0314,0 -0.11223,0.17269 -0.32324,1.45691 -0.50145,3.1202 -0.50446,4.70852 -0.9692,3.1069 -1.15955,-4.08703 l -0.12536,-5.64709 -0.28201,5.80093 -0.25072,5.82288 -0.18805,-6.76776 c -0.15213,-5.39606 -0.21963,-6.11341 -0.40737,-3.60361 -0.0832,1.11272 -0.16648,1.77297 -0.21943,1.91171 -0.0745,-0.14464 -0.15505,-1.43934 -0.28202,-4.26281 -0.2095,-4.65657 -0.28251,-3.75753 -0.43876,5.95478 -0.11624,7.2227 -0.24842,10.19699 -0.40738,8.02006 -0.16217,-2.22096 -0.36605,-3.05783 -0.53273,-2.35117 -0.23137,0.9806 -0.26527,0.90374 -0.40738,-0.6372 -0.12305,-1.334 -0.22826,-0.96464 -0.43876,1.58208 l -0.28202,3.29599 -0.12536,-4.24081 c -0.0763,-2.33296 -0.29345,-6.08127 -0.47016,-8.32802 l -0.3135,-4.08703 -0.15665,5.95478 -0.12536,5.97672 -0.40738,-4.5485 c -0.21111,-2.50579 -0.54597,-5.89508 -0.75217,-7.53699 -0.33767,-2.68882 -0.38792,-2.26891 -0.53274,4.2408 l -0.15665,7.22902 -0.25072,-4.72429 -0.28201,-4.70226 -0.18805,7.38301 -0.18804,7.38301 -0.21943,-4.87807 -0.25072,-4.87805 -0.37609,2.98835 c -0.19988,1.64171 -0.4844,3.84121 -0.6581,4.87807 l -0.3134,1.8897 -0.3448,-1.27445 c -0.17811,-0.69126 -0.31069,-1.83641 -0.3134,-2.57083 -0.003,-0.73444 -0.22364,-1.34033 -0.47016,-1.34033 -0.26506,0 -0.47677,1.3638 -0.53273,3.36186 -0.0865,3.08533 -0.10842,2.94413 -0.3448,-1.64802 -0.21863,-4.24805 -0.3118,-4.60792 -0.47015,-2.35117 -0.0656,0.93467 -0.11283,1.49768 -0.15666,1.62601 -0.0622,-0.15581 -0.15334,-1.20673 -0.28201,-3.36187 l -0.25072,-4.39466 -0.15665,5.03185 c -0.23378,8.06365 -0.73472,7.5581 -1.09697,-1.09866 -0.61728,-14.75618 -0.99136,-15.79543 -1.19093,-3.29599 l -0.18805,11.3164 -0.25072,-7.38301 -0.25072,-7.38301 -0.21943,6.43812 c -0.18353,5.225 -0.23047,4.14152 -0.31341,-5.73497 l -0.12536,-12.17284 H 670.306 l -0.31341,5.73499 c -0.175,3.1538 -0.37809,5.79488 -0.47016,5.86689 -0.0921,0.072 -0.20749,-1.43146 -0.25072,-3.31799 l -0.094,-3.42784 -0.3134,3.7794 c -0.1732,2.07379 -0.47858,6.8771 -0.68949,10.67936 -0.21091,3.80189 -0.47708,6.49514 -0.59552,5.97671 -0.16287,-0.71305 -0.29194,-0.48129 -0.50145,0.94489 -0.27619,1.88035 -0.26957,1.87888 -0.34479,-0.72508 -0.0442,-1.53307 -0.25453,-2.54602 -0.50145,-2.43906 -0.23126,0.10017 -0.49843,-0.33716 -0.59551,-0.98876 -0.097,-0.65169 -0.24281,0.36233 -0.31341,2.26327 -0.15444,4.15833 -0.73572,3.17131 -0.94021,-1.58208 l -0.12546,-3.1422 -0.28202,2.52696 c -0.10279,0.91064 -0.19877,1.46773 -0.25072,1.60401 -0.0653,-0.0939 -0.11303,-1.06506 -0.18804,-3.18609 l -0.12536,-4.08702 -0.37609,3.318 c -0.54367,4.7664 -0.72018,5.17253 -0.87753,2.35117 l -0.12536,-2.52696 -0.3134,1.73593 c -0.26647,1.52483 -0.3099,1.351 -0.43877,-1.56014 -0.12887,-2.91109 -0.1722,-3.10692 -0.43877,-1.58209 -0.25724,1.47177 -0.34569,1.57379 -0.47015,0.63721 -0.12446,-0.9366 -0.18153,-0.85651 -0.43877,0.61523 l -0.28201,1.73593 -0.094,-1.7139 c -0.11122,-2.59047 -0.54337,-1.71498 -0.94021,1.9117 l -0.3448,3.25203 -0.12536,-5.18568 c -0.12867,-5.5644 -0.71346,-5.16121 -0.94021,0.63719 l -0.12536,2.98836 -0.28202,-2.68073 -0.28201,-2.65874 -0.15665,3.75747 c -0.1715,3.68223 -0.19888,3.71773 -0.3448,1.03277 -0.0821,-1.5121 -0.33687,-2.74661 -0.56412,-2.74661 -0.22726,0 -0.48199,-1.25652 -0.56413,-2.76863 -0.0138,-0.25517 -0.048,-0.40059 -0.0627,-0.43947 -0.0661,0.26072 -0.137,2.49701 -0.18804,5.8669 -0.068,4.49309 -0.32093,8.44335 -0.53274,8.78929 -0.22736,0.37098 -0.38882,-3.10164 -0.40738,-8.50382 -0.0173,-5.03318 -0.15936,-9.61198 -0.3134,-10.15199 -0.32393,-1.13565 -1.03127,-1.30272 -1.09696,-0.26367 -0.0428,0.67824 -0.0632,0.66566 -0.40738,-0.088 -0.23167,-0.50717 -0.41399,0.60625 -0.50145,3.14221 l -0.12536,3.93325 -0.25072,-3.93325 -0.25072,-3.91124 -0.37609,6.28434 c -0.21191,3.45624 -0.53755,7.11511 -0.72088,8.15225 l -0.34479,1.8897 -0.12536,-1.56013 c -0.0654,-0.8641 -0.25063,-2.00846 -0.43877,-2.52696 -0.29515,-0.81325 -0.36646,-0.6999 -0.47016,0.79103 -0.0694,0.99762 -0.20559,1.35574 -0.3134,0.85699 -0.12496,-0.57818 -0.45712,-0.85699 -1.00289,-0.85699 -0.64306,0 -0.90561,-0.37752 -1.25362,-1.80181 -0.31872,-1.30418 -0.45992,-1.5282 -0.50144,-0.79102 -0.0316,0.56166 -0.25504,1.03277 -0.50155,1.03277 -0.2757,0 -0.43877,-1.58573 -0.43877,-4.08702 0,-2.37185 -0.2087,-4.12753 -0.47015,-4.24081 -0.24651,-0.1068 -0.46675,-0.85931 -0.50145,-1.66996 l -0.0627,-1.47224 -0.40738,1.71391 c -0.22675,0.9505 -0.56783,4.49661 -0.75216,7.86677 -0.21733,3.97248 -0.37699,5.23335 -0.47016,3.60361 -0.079,-1.38251 -0.29916,-4.63702 -0.47016,-7.22901 l -0.3134,-4.70228 -0.15665,4.2408 -0.18805,4.2408 -0.25072,-4.87807 c -0.12075,-2.26411 -0.20569,-3.44202 -0.25072,-3.64754 -0.0326,0.10178 -0.0579,0.83216 -0.0941,2.10943 -0.0518,1.83169 -0.26216,4.4575 -0.43877,5.82287 -0.26687,2.06316 -0.35272,2.29829 -0.59552,1.38436 -0.16066,-0.60486 -0.33807,1.23562 -0.40737,4.087 -0.13459,5.53073 -0.23458,5.54796 -0.68949,0.21974 -0.32885,-3.85168 -1.09696,-4.55672 -1.09696,-1.01077 0,2.56774 -0.88315,3.3443 -0.97161,0.857 -0.0292,-0.82085 -0.20098,-1.92057 -0.37608,-2.43907 -0.2783,-0.824 -0.34239,-0.70314 -0.62681,0.94489 -0.54898,3.18025 -0.59512,3.22244 -0.6581,0.59331 -0.0906,-3.77412 -0.59963,-7.33942 -1.03418,-7.33942 -0.21031,0 -0.42422,1.16716 -0.47016,2.59285 l -0.0627,2.59284 -0.28201,-2.68073 c -0.12506,-1.18818 -0.22525,-1.80286 -0.28201,-1.93366 -0.0419,0.0405 -0.079,0.36417 -0.12537,0.98876 -0.10269,1.38436 -0.21401,1.57407 -0.50144,0.9449 -0.25765,-0.564 -0.40577,-0.0689 -0.50145,1.73592 l -0.12536,2.50494 -0.28201,-3.44976 c -0.25574,-3.26252 -0.25965,-3.13033 -0.40738,2.50496 l -0.15665,5.97671 -0.37609,-6.43811 c -0.19837,-3.54266 -0.52511,-7.65021 -0.72087,-9.11908 -0.30709,-2.30526 -0.35994,-1.64902 -0.56413,4.72429 l -0.25073,7.383 -0.0941,-7.36121 c -0.0548,-4.04666 -0.24962,-7.27403 -0.40737,-7.16363 -0.15786,0.1106 -0.42362,3.06598 -0.59552,6.57003 -0.30628,6.24441 -0.29575,6.28871 -0.43876,2.28523 -0.11624,-3.25296 -0.22957,-3.72737 -0.47016,-2.35119 -0.2414,1.38099 -0.31762,0.91304 -0.43877,-2.35117 l -0.15665,-4.08702 -0.34479,4.39465 c -0.19537,2.41938 -0.62912,6.0329 -0.97161,8.02006 l -0.6268,3.60361 -0.15666,-2.50495 -0.12536,-2.52696 -0.3134,1.73592 c -0.21803,1.24717 -0.33336,1.47133 -0.43877,0.79104 -0.1054,-0.68029 -0.22073,-0.45621 -0.43876,0.79104 -0.2427,1.38842 -0.34089,0.90866 -0.47016,-2.37312 l -0.15665,-4.08701 -0.28201,3.31799 -0.28202,3.29598 -0.15665,-4.2408 c -0.14843,-3.58667 -0.23016,-3.90328 -0.43876,-2.04347 -0.16197,1.44383 -0.31321,-0.1864 -0.47016,-4.72428 l -0.25072,-6.8996 -0.15666,7.84426 c -0.15294,6.85769 -0.22665,7.41185 -0.50144,4.39465 -0.1731,-1.90095 -0.38642,-5.15544 -0.47016,-7.22901 l -0.15665,-3.75746 -0.25072,5.18569 -0.25073,5.18569 -0.12536,-5.18569 c -0.19105,-7.40904 -0.93931,-5.22401 -1.37898,4.08701 -0.19175,4.06109 -0.40075,6.59759 -0.47015,5.64709 -0.10892,-1.49424 -0.1743,-1.60612 -0.47016,-0.79104 -0.25634,0.70639 -0.35332,0.32359 -0.43876,-1.56013 -0.0627,-1.38252 -0.2066,-2.19065 -0.31341,-1.80181 -0.10681,0.38884 -0.39744,0.70315 -0.6268,0.70315 -0.22937,0 -0.44098,1.50417 -0.47016,3.36187 -0.0633,4.0321 -0.694,3.01501 -0.81485,-1.31839 -0.15746,-5.6473 -0.81515,-5.6473 -0.9716,0 -0.0672,2.4274 -0.11915,3.66464 -0.15666,3.88923 -0.0308,-0.14394 -0.0738,-0.89905 -0.12536,-2.24127 -0.13057,-3.39549 -0.21221,-3.69151 -1.00289,-3.69151 -0.7291,0 -0.8658,0.26966 -1.00289,1.80181 -0.14482,1.61808 -0.17481,1.54368 -0.25073,-0.63719 -0.0466,-1.33929 -0.29585,-2.41706 -0.53273,-2.41706 -0.23689,0 -0.48199,-1.25651 -0.56413,-2.76863 -0.10581,-1.94806 -0.21552,-1.23444 -0.34479,2.43906 -0.11163,3.17238 -0.21994,4.23672 -0.31341,2.74663 -0.1737,-2.76961 -0.91243,-3.24586 -1.15954,-0.7691 -0.14522,1.45551 -0.14622,1.38203 -0.21944,-0.59331 -0.0456,-1.23128 -0.25393,-2.71272 -0.43876,-3.29599 -0.28653,-0.90396 -0.37779,-0.71236 -0.59552,1.29646 -0.16217,1.49671 -0.26216,0.0201 -0.3134,-4.02115 -0.0507,-3.99455 -0.25143,-6.35022 -0.53274,-6.35022 -0.2791,0 -0.47708,2.16342 -0.53274,5.73498 -0.0852,5.4694 -0.11914,5.55589 -0.37608,2.10943 l -0.25072,-3.60362 -0.18805,2.65874 -0.15665,2.68072 -0.28201,-1.8897 -0.31341,-1.8897 -0.15665,1.8897 c -0.0946,1.03687 -0.29866,-0.73618 -0.43876,-3.93324 l -0.25073,-5.80092 -0.15665,7.99825 c -0.22906,12.04626 -0.75628,14.18523 -0.94021,3.7794 -0.0918,-5.19357 -0.25203,-7.64107 -0.40738,-6.13058 l -0.28201,2.52696 -0.37608,-3.07624 c -0.21161,-1.68496 -0.56634,-3.05432 -0.78346,-3.05432 -0.21713,0 -0.42563,3.92782 -0.47016,8.72319 -0.0444,4.79552 -0.15846,8.0278 -0.25072,7.20722 -0.1382,-1.22866 -0.31662,-1.47223 -1.03419,-1.47223 -0.78837,0 -0.88766,-0.24842 -0.94021,-2.59284 l -0.0627,-2.59285 -0.34479,2.19732 c -0.20369,1.2097 -0.58228,2.75857 -0.81485,3.44977 l -0.40738,1.25244 -0.12536,-1.8897 -0.12536,-1.86769 -0.28202,1.86769 c -0.27068,1.7156 -0.32092,1.58523 -0.47015,-1.56014 l -0.15665,-3.44976 -0.28202,3.44976 c -0.12726,1.62363 -0.20308,2.45749 -0.25072,2.59284 -0.0375,-0.0315 -0.089,-0.58114 -0.12536,-1.58206 -0.0701,-1.92746 -0.22014,-2.41706 -0.75217,-2.41706 -0.56623,0 -0.67685,-0.8186 -0.75217,-5.11973 l -0.0941,-5.0978 -0.28202,3.60362 c -0.22815,3.06001 -0.26626,3.31167 -0.40737,1.58207 l -0.18804,-2.04347 -0.28202,2.04347 c -0.2108,1.46725 -0.33055,0.35558 -0.43876,-3.93324 -0.14743,-5.84264 -0.18183,-5.76044 -0.50145,3.71344 -0.17962,5.32413 -0.40828,9.75682 -0.53273,9.84401 -0.12456,0.0874 -0.36666,-1.51803 -0.53274,-3.55966 -0.16608,-2.04158 -0.3447,-3.85225 -0.40738,-4.02115 -0.0627,-0.16882 -0.55409,1.17777 -1.06557,2.98837 l -0.90882,3.29598 -0.0941,-2.3731 c -0.0533,-1.29611 -0.25865,-3.27138 -0.43877,-4.39465 -0.26597,-1.6588 -0.35352,-1.06851 -0.47015,3.1422 l -0.15666,5.18569 -0.3134,-3.29599 c -0.1749,-1.81453 -0.36716,-4.14883 -0.43877,-5.18568 -0.11874,-1.71841 -0.14893,-1.78282 -0.37608,-0.63719 -0.19988,1.0081 -0.28954,0.7359 -0.50145,-1.4063 -0.25463,-2.57434 -0.27008,-2.50656 -0.40737,1.58209 -0.095,2.82881 -0.28121,3.87559 -0.50145,3.1422 -0.19526,-0.65055 -0.37648,1.59009 -0.47015,5.4933 l -0.15666,6.59199 -0.25072,-7.22903 c -0.21532,-6.2359 -0.26908,-6.66678 -0.40737,-3.1422 -0.17772,4.52691 -0.32474,4.43275 -0.75217,-0.5493 -0.31331,-3.65213 -0.93039,-4.47129 -1.19094,-1.56013 -0.089,0.99368 -0.25493,-2.37298 -0.34479,-7.47091 -0.1359,-7.7177 -0.21292,-8.63249 -0.47016,-5.49331 -0.16989,2.07379 -0.38371,6.38327 -0.47016,9.58033 l -0.15665,5.82288 -0.25072,-5.6691 c -0.12326,-2.72741 -0.19536,-4.10833 -0.25072,-4.37271 -0.0426,0.1388 -0.0903,0.93518 -0.15666,2.32917 l -0.18804,3.62555 -0.3134,-4.08702 c -0.17661,-2.24655 -0.34801,-6.03959 -0.37609,-8.41593 l -0.0627,-4.30676 h -0.50144 z"
   style="fill:#484848;fill-opacity:0.737179;stroke-width:0.839748"
   inkscape:connector-curvature="0" />
  </g>
  </svg>
