<?xml version="1.0" encoding="UTF-8" standalone="no"?>
<!-- Created with Inkscape (http://www.inkscape.org/) -->

<svg
   width="32.000114mm"
   height="7.888238mm"
   viewBox="0 0 32.000114 7.888238"
   version="1.1"
   id="svg1"
   inkscape:version="1.4 (86a8ad7, 2024-10-11)"
   sodipodi:docname="船艦美術草稿.svg"
   xml:space="preserve"
   inkscape:export-filename="NavalChess\wwwroot\images\units\submarine.png"
   inkscape:export-xdpi="100"
   inkscape:export-ydpi="100"
   xmlns:inkscape="http://www.inkscape.org/namespaces/inkscape"
   xmlns:sodipodi="http://sodipodi.sourceforge.net/DTD/sodipodi-0.dtd"
   xmlns="http://www.w3.org/2000/svg"
   xmlns:svg="http://www.w3.org/2000/svg"><sodipodi:namedview
   id="namedview1"
   pagecolor="#ffffff"
   bordercolor="#000000"
   borderopacity="0.25"
   inkscape:showpageshadow="2"
   inkscape:pageopacity="0.0"
   inkscape:pagecheckerboard="0"
   inkscape:deskcolor="#d1d1d1"
   inkscape:document-units="mm"
   inkscape:lockguides="false"
   showgrid="true"
   inkscape:zoom="8.0000002"
   inkscape:cx="740.62498"
   inkscape:cy="562.81249"
   inkscape:window-width="1920"
   inkscape:window-height="1009"
   inkscape:window-x="-8"
   inkscape:window-y="-8"
   inkscape:window-maximized="1"
   inkscape:current-layer="g6"
   inkscape:export-bgcolor="#ffffff00"
   showguides="true"><inkscape:grid
     id="grid4"
     units="mm"
     originx="-176.0001"
     originy="-100.05598"
     spacingx="2.0000001"
     spacingy="1.9999996"
     empcolor="#0099e5"
     empopacity="0.30196078"
     color="#0099e5"
     opacity="0.14901961"
     empspacing="8"
     enabled="true"
     visible="true"
     snapvisiblegridlinesonly="true"
     dotted="false" /><inkscape:page
     x="0"
     y="0"
     width="32.000114"
     height="7.888238"
     id="page2"
     margin="0"
     bleed="0" /></sodipodi:namedview><defs
   id="defs1" />

<g
   id="g4"
   transform="translate(-176.00011,-100.05597)"><path
     id="path8"
     style="fill:#c3d1f6;fill-opacity:1;stroke:none;stroke-width:0.07;stroke-linecap:round;stroke-linejoin:round;stroke-opacity:1"
     d="m 191.32062,100.05642 c -2.08944,-0.004 -4.206,0.0182 -4.84363,0.10284 -1.68597,0.22371 -5.68972,1.3359 -7.08122,1.66398 -1.3915,0.32808 -3.39577,1.49718 -3.39566,2.17661 1.1e-4,0.67943 2.00416,1.84853 3.39566,2.17661 1.3915,0.32808 5.39525,1.44028 7.08122,1.66399 1.27527,0.16921 8.46748,0.0916 9.52293,0.0439 2.3246,-0.1051 5.08698,-0.71802 6.01927,-1.08469 0.77365,-0.30427 2.20039,-0.91519 2.20039,-0.91519 0,0 2.28541,0.60405 2.62619,0.68265 0.14002,-0.0257 0.37207,-0.30541 0.43822,-0.44597 0.11229,9.4e-4 0.43735,0.003 0.53382,-0.0434 0.19586,-0.32448 0.17508,-1.75121 0.18241,-2.07791 -0.007,-0.3267 0.0134,-1.75291 -0.18241,-2.07739 -0.0965,-0.0466 -0.42153,-0.0449 -0.53382,-0.0439 -0.0661,-0.14056 -0.2982,-0.42027 -0.43822,-0.44597 -0.34078,0.0786 -2.62619,0.68316 -2.62619,0.68316 0,0 -1.42674,-0.61143 -2.20039,-0.91571 -0.93229,-0.36667 -3.69467,-0.97907 -6.01927,-1.08417 -0.52772,-0.0238 -2.58986,-0.0551 -4.6793,-0.0594 z"
     sodipodi:nodetypes="sszzzssscccccccccssss"
     inkscape:export-filename="NavalChess\wwwroot\images\Unit\submarine.svg"
     inkscape:export-xdpi="100"
     inkscape:export-ydpi="100" /><path
     id="path8-3-6"
     style="fill:#8794be;fill-opacity:1;stroke:none;stroke-width:0.0662475;stroke-linecap:round;stroke-linejoin:round;stroke-opacity:1"
     d="m 191.3498,100.29722 c -2.07163,-0.004 -4.16118,0.0651 -4.79338,0.14165 -1.6716,0.20208 -5.67358,1.29833 -7.05322,1.5947 -1.37964,0.29638 -3.36683,1.35249 -3.36672,1.96626 1.1e-4,0.61377 1.98708,1.66989 3.36672,1.96627 1.37964,0.29636 5.37265,1.39462 7.04425,1.59671 0.61384,0.0742 2.56358,0.16606 4.57531,0.16376 2.13209,-0.002 4.45666,-0.0902 4.99508,-0.11236 2.30479,-0.0949 4.89161,-0.75387 5.81596,-1.08511 0.76705,-0.27486 2.18163,-0.82674 2.18163,-0.82674 0,0 2.127,-0.98075 2.12849,-1.70219 0.001,-0.72144 -2.12849,-1.70236 -2.12849,-1.70236 0,0 -1.41458,-0.55235 -2.18163,-0.82721 -0.92435,-0.33124 -3.58133,-0.9897 -5.88612,-1.08464 -0.52322,-0.0215 -4.69788,-0.0887 -4.69788,-0.0887 z"
     sodipodi:nodetypes="sszzzssssczcssss" /><path
     style="fill:#a4abc2;fill-opacity:1;stroke:none;stroke-width:0.07;stroke-linecap:round;stroke-linejoin:round;stroke-opacity:1"
     d="m 176.91011,103.60071 c 0,0 1.3122,-0.73118 2.12205,-0.98175 0.81308,-0.25157 24.99007,0.65676 26.7066,0.65908 1.71654,0.002 1.98943,0.72017 1.98943,0.72017 l -30.82408,0.002 z"
     id="path19"
     sodipodi:nodetypes="cszccc" /><path
     style="fill:#a4abc2;fill-opacity:1;stroke:none;stroke-width:0.07;stroke-linecap:round;stroke-linejoin:round;stroke-opacity:1"
     d="m 176.90993,104.39983 c 0,0 1.3122,0.73118 2.12205,0.98175 0.81308,0.25157 24.99007,-0.65676 26.7066,-0.65908 1.71654,-0.002 1.98943,-0.72017 1.98943,-0.72017 l -30.82408,-0.002 z"
     id="path19-7"
     sodipodi:nodetypes="cszccc" /><path
     style="fill:#a8b2ce;fill-opacity:1;stroke:none;stroke-width:0.0682118;stroke-linecap:round;stroke-linejoin:round;stroke-opacity:1"
     id="path16"
     sodipodi:type="arc"
     sodipodi:cx="206.77444"
     sodipodi:cy="103.99821"
     sodipodi:rx="1.0843587"
     sodipodi:ry="2.3155816"
     sodipodi:start="0.3981494"
     sodipodi:end="0.23293633"
     sodipodi:open="true"
     sodipodi:arc-type="arc"
     d="m 207.77398,104.89599 a 1.0843587,2.3155816 0 0 1 -1.37832,1.27192 1.0843587,2.3155816 0 0 1 -0.65204,-2.8883 1.0843587,2.3155816 0 0 1 1.32449,-1.51045 1.0843587,2.3155816 0 0 1 0.76141,2.76357" /><path
     style="fill:#9dadd9;fill-opacity:1;stroke:none;stroke-width:0.0599957;stroke-linecap:round;stroke-linejoin:round;stroke-opacity:1"
     id="path16-3"
     sodipodi:type="arc"
     sodipodi:cx="206.77444"
     sodipodi:cy="103.99821"
     sodipodi:rx="0.95374882"
     sodipodi:ry="2.0366724"
     sodipodi:start="0.3981494"
     sodipodi:end="0.23293633"
     sodipodi:open="true"
     sodipodi:arc-type="arc"
     d="m 207.65359,104.78785 a 0.95374882,2.0366724 0 0 1 -1.21231,1.11873 0.95374882,2.0366724 0 0 1 -0.5735,-2.54042 0.95374882,2.0366724 0 0 1 1.16495,-1.32852 0.95374882,2.0366724 0 0 1 0.66971,2.4307" /><path
     style="fill:#9dadd9;fill-opacity:1;stroke:none;stroke-width:0.07;stroke-linecap:round;stroke-linejoin:round;stroke-opacity:1"
     d="m 206.77444,101.96153 c 0,0 0.411,-0.004 0.51228,-0.004 0,0 0.26192,0.004 0.39879,0.0426 0.13447,0.001 0.17843,1.99996 0.17843,1.99996 l -1.86394,4e-5 z"
     id="path17"
     sodipodi:nodetypes="cscccc" /><path
     style="fill:#9dadd9;fill-opacity:1;stroke:none;stroke-width:0.07;stroke-linecap:round;stroke-linejoin:round;stroke-opacity:1"
     d="m 206.77444,106.03873 c 0,0 0.411,0.004 0.51228,0.004 0,0 0.26192,-0.004 0.39879,-0.0426 0.13447,-0.001 0.17843,-1.99996 0.17843,-1.99996 L 206,104.00013 Z"
     id="path17-0"
     sodipodi:nodetypes="cscccc" /><path
     id="path9"
     style="fill:#ccd2e8;fill-opacity:1;stroke:none;stroke-width:0.0682392;stroke-linecap:round;stroke-linejoin:round;stroke-opacity:1"
     d="m 191.04253,101.55452 c -1.44578,-0.0579 -2.68735,1.57208 -2.75406,1.64228 -0.0667,0.0701 -0.81115,0.0236 -0.92229,0.0176 -0.11111,-0.006 -0.57207,-1.35053 -0.6443,-1.39733 -0.0722,-0.0468 -0.76117,-0.0353 -0.8334,-0.0119 -0.0722,0.0234 -0.54999,1.38005 -0.62221,1.44435 -0.0722,0.0645 -6.34542,-0.0235 -6.91214,0.006 -0.56673,0.0292 -1.4443,0.34519 -1.4443,0.34519 l -0.006,0.39946 h 29.55157 c 0,0 9.5e-4,-0.7154 -0.64873,-0.7214 0,0 -12.06518,-0.004 -12.1752,-0.0331 -0.10999,-0.0289 -1.14326,-1.63296 -2.58904,-1.69086 z m -14.1386,2.44533 0.006,0.39998 c 0,0 0.87757,0.31544 1.4443,0.34468 0.56672,0.0292 6.83991,-0.0583 6.91214,0.006 0.0722,0.0643 0.54999,1.42046 0.62221,1.44384 0.0722,0.0234 0.76118,0.0354 0.8334,-0.0114 0.0722,-0.0468 0.53319,-1.39148 0.6443,-1.39733 0.11113,-0.006 0.85561,-0.053 0.92229,0.0171 0.0667,0.0702 1.30828,1.70067 2.75405,1.64279 1.44579,-0.0579 2.47905,-1.66191 2.58904,-1.69085 0.11003,-0.0289 12.1752,-0.0336 12.1752,-0.0336 0.65008,-0.006 0.64873,-0.72089 0.64873,-0.72089 z" /><path
     sodipodi:nodetypes="zzszz"
     id="path26635-8-8-4-3-2"
     d="m 192.5801,104.00135 c 0.006,-0.70217 -1.35453,-1.03664 -1.81644,-1.03301 -0.46191,0.004 -1.01109,0.52929 -1.00888,1.03225 0.002,0.49921 0.5337,1.01484 0.96108,1.01772 0.42738,0.003 1.85803,-0.31479 1.86424,-1.01696 z"
     style="display:inline;fill:#949bb0;fill-opacity:1;fill-rule:evenodd;stroke:none;stroke-width:0.0258401;stroke-linecap:butt;stroke-linejoin:miter;stroke-miterlimit:4;stroke-dasharray:none;stroke-opacity:1" /><path
     style="fill:#a4abc2;fill-opacity:1;stroke:none;stroke-width:0.0916617;stroke-linecap:round;stroke-linejoin:round;stroke-opacity:1"
     id="path18"
     sodipodi:type="arc"
     sodipodi:cx="186.76576"
     sodipodi:cy="104.00101"
     sodipodi:rx="0.5146364"
     sodipodi:ry="0.80836827"
     sodipodi:start="0.3981494"
     sodipodi:end="0.23293633"
     sodipodi:open="true"
     sodipodi:arc-type="arc"
     d="m 187.24014,104.31442 a 0.5146364,0.80836827 0 0 1 -0.65415,0.44403 0.5146364,0.80836827 0 0 1 -0.30946,-1.00831 0.5146364,0.80836827 0 0 1 0.6286,-0.52729 0.5146364,0.80836827 0 0 1 0.36137,0.96476" /><path
     id="path20"
     style="fill:#71798f;fill-opacity:1;stroke:none;stroke-width:0.07;stroke-linecap:round;stroke-linejoin:round;stroke-opacity:1"
     d="m 186.60153,103.52022 c -0.0522,5e-5 -0.0947,0.003 -0.1018,0.01 -0.019,0.019 -0.0114,0.46948 -0.0114,0.46948 0,0 -0.008,0.45311 0.0114,0.47207 0.019,0.019 0.29095,0.005 0.32143,0 0.0305,-0.005 0.36277,-0.47077 0.36277,-0.47077 0,0 -0.33227,-0.46578 -0.36277,-0.47078 -0.019,-0.003 -0.1326,-0.01 -0.21963,-0.01 z"
     sodipodi:nodetypes="sscsscss" /><path
     style="fill:#343846;fill-opacity:1;stroke:none;stroke-width:0.193207;stroke-linecap:round;stroke-linejoin:round;stroke-opacity:1"
     id="path21"
     sodipodi:type="arc"
     sodipodi:cx="192"
     sodipodi:cy="103.99947"
     sodipodi:rx="0.26626009"
     sodipodi:ry="0.26626009"
     sodipodi:start="0.3981494"
     sodipodi:end="0.23293633"
     sodipodi:open="true"
     sodipodi:arc-type="arc"
     d="m 192.24543,104.10271 a 0.26626009,0.26626009 0 0 1 -0.33844,0.14625 0.26626009,0.26626009 0 0 1 -0.1601,-0.33212 0.26626009,0.26626009 0 0 1 0.32522,-0.17368 0.26626009,0.26626009 0 0 1 0.18696,0.31778" /><path
     style="fill:#343846;fill-opacity:1;stroke:none;stroke-width:0.110026;stroke-linecap:round;stroke-linejoin:round;stroke-opacity:1"
     id="path21-3"
     sodipodi:type="arc"
     sodipodi:cx="192.84636"
     sodipodi:cy="104.00135"
     sodipodi:rx="0.15162826"
     sodipodi:ry="0.15162826"
     sodipodi:start="0.3981494"
     sodipodi:end="0.23293633"
     sodipodi:open="true"
     sodipodi:arc-type="arc"
     d="m 192.98613,104.06014 a 0.15162826,0.15162826 0 0 1 -0.19274,0.0833 0.15162826,0.15162826 0 0 1 -0.0912,-0.18913 0.15162826,0.15162826 0 0 1 0.1852,-0.0989 0.15162826,0.15162826 0 0 1 0.10647,0.18096" /><path
     style="fill:#343846;fill-opacity:1;stroke:none;stroke-width:0.110026;stroke-linecap:round;stroke-linejoin:round;stroke-opacity:1"
     id="path21-3-7"
     sodipodi:type="arc"
     sodipodi:cx="193.29306"
     sodipodi:cy="104.0014"
     sodipodi:rx="0.15162826"
     sodipodi:ry="0.15162826"
     sodipodi:start="0.3981494"
     sodipodi:end="0.23293633"
     sodipodi:open="true"
     sodipodi:arc-type="arc"
     d="m 193.43283,104.06019 a 0.15162826,0.15162826 0 0 1 -0.19274,0.0833 0.15162826,0.15162826 0 0 1 -0.0912,-0.18913 0.15162826,0.15162826 0 0 1 0.1852,-0.0989 0.15162826,0.15162826 0 0 1 0.10647,0.18096" /></g></svg>
