<?xml version="1.0" encoding="UTF-8" standalone="no"?>
<!-- Created with Inkscape (http://www.inkscape.org/) -->

<svg
   width="48.000008mm"
   height="30.256323mm"
   viewBox="0 0 48.000008 30.256323"
   version="1.1"
   id="svg1"
   inkscape:version="1.4 (86a8ad7, 2024-10-11)"
   sodipodi:docname="船艦美術草稿.svg"
   xml:space="preserve"
   inkscape:export-filename="NavalChess\wwwroot\images\units\submarine.png"
   inkscape:export-xdpi="100"
   inkscape:export-ydpi="100"
   xmlns:inkscape="http://www.inkscape.org/namespaces/inkscape"
   xmlns:sodipodi="http://sodipodi.sourceforge.net/DTD/sodipodi-0.dtd"
   xmlns="http://www.w3.org/2000/svg"
   xmlns:svg="http://www.w3.org/2000/svg"><sodipodi:namedview
   id="namedview1"
   pagecolor="#ffffff"
   bordercolor="#000000"
   borderopacity="0.25"
   inkscape:showpageshadow="2"
   inkscape:pageopacity="0.0"
   inkscape:pagecheckerboard="0"
   inkscape:deskcolor="#d1d1d1"
   inkscape:document-units="mm"
   inkscape:lockguides="false"
   showgrid="true"
   inkscape:zoom="5.6568543"
   inkscape:cx="695.70468"
   inkscape:cy="112.16481"
   inkscape:window-width="1920"
   inkscape:window-height="1009"
   inkscape:window-x="-8"
   inkscape:window-y="-8"
   inkscape:window-maximized="1"
   inkscape:current-layer="g18161-0-0"
   inkscape:export-bgcolor="#ffffff00"><inkscape:grid
     id="grid4"
     units="mm"
     originx="-160.07395"
     originy="-17.198842"
     spacingx="0.99999998"
     spacingy="1"
     empcolor="#0099e5"
     empopacity="0.30196078"
     color="#0099e5"
     opacity="0.14901961"
     empspacing="16"
     enabled="true"
     visible="true"
     snapvisiblegridlinesonly="true"
     dotted="false" /><inkscape:page
     x="0"
     y="0"
     width="48.000008"
     height="30.256323"
     id="page2"
     margin="0"
     bleed="0" /></sodipodi:namedview><defs
   id="defs1" /><g
   id="g3"
   transform="matrix(0,-0.93116656,0.76306181,0,-12.438239,119.18932)"
   inkscape:export-filename="NavalChess\wwwroot\images\Unit\carrier.svg"
   inkscape:export-xdpi="96"
   inkscape:export-ydpi="96"><path
     style="display:inline;fill:#cfd6ee;fill-opacity:1;stroke-width:0.0810001;stroke-linejoin:bevel"
     d="M 108.67731,16.300442 H 121 l 7,25.699555 -1,30.999999 -5,6.204916 h -12 l -7.49885,-5.204915 -6.994071,-38.999999 8.898871,-2.341393 z"
     id="path1" /><path
     id="path1-6"
     style="display:inline;fill:#8794be;fill-opacity:1;stroke-width:0.0810001;stroke-linejoin:bevel"
     d="m 104.91797,32.791016 c -0.54619,0.685109 -1.54827,0.578808 -2.31113,0.887782 -2.16387,0.569307 -4.327738,1.138614 -6.491606,1.707921 2.289714,12.767578 4.579426,25.535156 6.869146,38.302734 2.39453,1.662109 4.78906,3.324219 7.18359,4.986328 3.85937,0 7.71875,0 11.57812,0 1.57683,-1.95638 3.15365,-3.91276 4.73047,-5.86914 0.33073,-10.249349 0.66146,-20.498698 0.99219,-30.748047 -2.29102,-8.409505 -4.58203,-16.819011 -6.87305,-25.228516 -3.83659,0 -7.67317,0 -11.50976,0 -1.38933,5.320313 -2.77865,10.640625 -4.16797,15.960938 z" /><path
     style="display:inline;fill:#8d93a3;fill-opacity:1;stroke-width:0.0810001;stroke-linejoin:bevel"
     d="m 124.54103,56.144604 1.4,3 v 13.58538 l -4.43663,3.852937 h -1.56337 V 57.40395 Z"
     id="path2-9" /><path
     style="display:inline;fill:#e3eefe;fill-opacity:1;stroke-width:0.0810001;stroke-linejoin:bevel"
     d="m 124.67844,55.914612 1.4,3 v 13.58538 l -4.43663,3.852937 h -1.56337 V 57.173958 Z"
     id="path2-4" /><path
     style="display:inline;fill:#ccd2e8;fill-opacity:1;stroke-width:0.0810001;stroke-linejoin:bevel"
     d="m 124.6,55.999998 1.4,3 v 13.58538 l -4.43663,3.852937 H 120 V 57.259344 Z"
     id="path2" /><path
     style="fill:none;fill-opacity:1;stroke:#c3d2f3;stroke-width:0.45;stroke-linecap:round;stroke-linejoin:round;stroke-dasharray:none;stroke-opacity:1"
     d="M 105.34519,34.116929 109,52.536978"
     id="path4"
     sodipodi:nodetypes="cc" /><path
     style="fill:none;fill-opacity:1;stroke:#b0a995;stroke-width:0.45;stroke-linecap:round;stroke-linejoin:round;stroke-dasharray:none;stroke-opacity:1"
     d="M 100.93959,38.586588 106,60.39661"
     id="path4-5"
     sodipodi:nodetypes="cc" /><path
     style="fill:none;fill-opacity:1;stroke:#c3d2f3;stroke-width:0.45;stroke-linecap:round;stroke-linejoin:round;stroke-dasharray:none;stroke-opacity:1"
     d="M 118.88161,17.316082 V 78.157669"
     id="path4-8" /><path
     style="fill:none;fill-opacity:1;stroke:#c3d2f3;stroke-width:0.45;stroke-linecap:round;stroke-linejoin:round;stroke-dasharray:none;stroke-opacity:1"
     d="M 109.775,17.298085 V 78.139672"
     id="path4-8-0" /><path
     style="fill:none;fill-opacity:1;stroke:#c3d2f3;stroke-width:0.45;stroke-linecap:round;stroke-linejoin:round;stroke-dasharray:none;stroke-opacity:1"
     d="m 110.89193,17.345317 v 2.209154"
     id="path4-8-0-8"
     sodipodi:nodetypes="cc" /><path
     style="fill:none;fill-opacity:1;stroke:#c3d2f3;stroke-width:0.45;stroke-linecap:round;stroke-linejoin:round;stroke-dasharray:none;stroke-opacity:1"
     d="m 112.02831,17.352759 v 2.209154"
     id="path4-8-0-8-4"
     sodipodi:nodetypes="cc" /><path
     style="fill:none;fill-opacity:1;stroke:#c3d2f3;stroke-width:0.45;stroke-linecap:round;stroke-linejoin:round;stroke-dasharray:none;stroke-opacity:1"
     d="m 113.225,17.373307 v 2.209154"
     id="path4-8-0-8-4-6"
     sodipodi:nodetypes="cc" /><path
     style="fill:none;fill-opacity:1;stroke:#c3d2f3;stroke-width:0.45;stroke-linecap:round;stroke-linejoin:round;stroke-dasharray:none;stroke-opacity:1"
     d="m 114.34974,17.400392 v 2.209154"
     id="path4-8-0-8-4-6-9"
     sodipodi:nodetypes="cc" /><path
     style="fill:none;fill-opacity:1;stroke:#c3d2f3;stroke-width:0.45;stroke-linecap:round;stroke-linejoin:round;stroke-dasharray:none;stroke-opacity:1"
     d="m 115.52327,17.419682 v 2.209154"
     id="path4-8-0-8-4-6-9-8"
     sodipodi:nodetypes="cc" /><path
     style="fill:none;fill-opacity:1;stroke:#c3d2f3;stroke-width:0.45;stroke-linecap:round;stroke-linejoin:round;stroke-dasharray:none;stroke-opacity:1"
     d="m 116.63135,17.384857 v 2.209154"
     id="path4-8-0-8-4-6-9-8-1"
     sodipodi:nodetypes="cc" /><path
     style="fill:none;fill-opacity:1;stroke:#c3d2f3;stroke-width:0.45;stroke-linecap:round;stroke-linejoin:round;stroke-dasharray:none;stroke-opacity:1"
     d="m 117.87093,17.383368 v 2.209154"
     id="path4-8-0-8-4-6-9-8-1-8"
     sodipodi:nodetypes="cc" /><path
     style="fill:none;fill-opacity:1;stroke:#c3d2f3;stroke-width:0.45;stroke-linecap:round;stroke-linejoin:round;stroke-dasharray:none;stroke-opacity:1"
     d="m 97.452189,36.410663 0.571771,2.133879"
     id="path4-8-0-8-6"
     sodipodi:nodetypes="cc" /><path
     style="fill:none;fill-opacity:1;stroke:#c3d2f3;stroke-width:0.45;stroke-linecap:round;stroke-linejoin:round;stroke-dasharray:none;stroke-opacity:1"
     d="m 98.551774,36.123735 0.571771,2.133879"
     id="path4-8-0-8-4-3"
     sodipodi:nodetypes="cc" /><path
     style="fill:none;fill-opacity:1;stroke:#c3d2f3;stroke-width:0.45;stroke-linecap:round;stroke-linejoin:round;stroke-dasharray:none;stroke-opacity:1"
     d="m 99.713002,35.833857 0.571768,2.133879"
     id="path4-8-0-8-4-6-6"
     sodipodi:nodetypes="cc" /><path
     style="fill:none;fill-opacity:1;stroke:#c3d2f3;stroke-width:0.45;stroke-linecap:round;stroke-linejoin:round;stroke-dasharray:none;stroke-opacity:1"
     d="m 100.80643,35.568915 0.57177,2.133879"
     id="path4-8-0-8-4-6-9-1"
     sodipodi:nodetypes="cc" /><path
     style="fill:none;fill-opacity:1;stroke:#c3d2f3;stroke-width:0.45;stroke-linecap:round;stroke-linejoin:round;stroke-dasharray:none;stroke-opacity:1"
     d="m 101.94496,35.283816 0.57177,2.133879"
     id="path4-8-0-8-4-6-9-8-5"
     sodipodi:nodetypes="cc" /><path
     style="fill:none;fill-opacity:1;stroke:#c3d2f3;stroke-width:0.45;stroke-linecap:round;stroke-linejoin:round;stroke-dasharray:none;stroke-opacity:1"
     d="m 103.00627,34.963386 0.57177,2.133878"
     id="path4-8-0-8-4-6-9-8-1-4"
     sodipodi:nodetypes="cc" /><path
     style="fill:none;fill-opacity:1;stroke:#c3d2f3;stroke-width:0.45;stroke-linecap:round;stroke-linejoin:round;stroke-dasharray:none;stroke-opacity:1"
     d="m 104.20323,34.64112 0.57177,2.133879"
     id="path4-8-0-8-4-6-9-8-1-8-2"
     sodipodi:nodetypes="cc" /><path
     style="fill:#b0a895;fill-opacity:1;stroke:#b0a995;stroke-width:0.434622;stroke-linecap:round;stroke-linejoin:round;stroke-dasharray:none;stroke-opacity:1"
     d="M 114.37383,21.45793 V 78.21217"
     id="path4-8-2" /><path
     id="path5"
     style="fill:#c3d1f6;fill-opacity:1;stroke:#c3d1f6;stroke-width:0.35;stroke-linecap:round;stroke-linejoin:round;stroke-dasharray:none;stroke-opacity:1"
     d="m 102.99991,61.515625 v 2.094446 l -0.49867,0.390157 0.49867,0.38964 v 2.094446 l 1.4609,-0.484208 2.27376,-1.558045 1.26556,-0.297656 0.2806,-0.144177 -0.2806,-0.144177 -1.26556,-0.298173 -2.27376,-1.558045 z" /><path
     id="path5-7"
     style="fill:#c3d1f6;fill-opacity:1;stroke:#c3d1f6;stroke-width:0.35;stroke-linecap:round;stroke-linejoin:round;stroke-dasharray:none;stroke-opacity:1"
     d="m 103.26534,67.957745 v 2.094446 l -0.49867,0.390157 0.49867,0.38964 v 2.094446 l 1.4609,-0.484208 2.27376,-1.558045 1.26556,-0.297656 0.2806,-0.144177 -0.2806,-0.144177 L 107,69.999998 104.72624,68.441953 Z" /><path
     id="path5-7-2"
     style="fill:#c3d1f6;fill-opacity:1;stroke:#c3d1f6;stroke-width:0.35;stroke-linecap:round;stroke-linejoin:round;stroke-dasharray:none;stroke-opacity:1"
     d="m 125.75067,42.289519 v -2.09444 l 0.49867,-0.39016 -0.49867,-0.38964 v -2.09444 l -1.4609,0.4842 -2.27376,1.55805 -1.26556,0.29765 -0.2806,0.14418 0.2806,0.14418 1.26556,0.29817 2.27376,1.55805 z" /><path
     id="path5-7-2-4"
     style="fill:#c3d1f6;fill-opacity:1;stroke:#c3d1f6;stroke-width:0.35;stroke-linecap:round;stroke-linejoin:round;stroke-dasharray:none;stroke-opacity:1"
     d="m 125.75067,48.289519 v -2.09444 l 0.49867,-0.39016 -0.49867,-0.38964 v -2.09444 l -1.4609,0.4842 -2.27376,1.55805 -1.26556,0.29765 -0.2806,0.14418 0.2806,0.14418 1.26556,0.29817 2.27376,1.55805 z" /><path
     id="path5-7-2-4-1"
     style="fill:#c3d1f6;fill-opacity:1;stroke:#c3d1f6;stroke-width:0.35;stroke-linecap:round;stroke-linejoin:round;stroke-dasharray:none;stroke-opacity:1"
     d="m 125.75067,54.289519 v -2.09444 l 0.49867,-0.39016 -0.49867,-0.38964 v -2.09444 l -1.4609,0.4842 -2.27376,1.55805 -1.26556,0.29765 -0.2806,0.14418 0.2806,0.14418 1.26556,0.29817 2.27376,1.55805 z" /><rect
     ry="0.1535919"
     rx="0.18742862"
     y="-125.2466"
     x="-66.502602"
     height="4.3859019"
     width="6.6849546"
     id="rect9775-4-6-5"
     style="display:inline;fill:#858fad;fill-opacity:1;fill-rule:evenodd;stroke:none;stroke-width:0.015307;stroke-linecap:round;stroke-linejoin:round;stroke-miterlimit:4;stroke-dasharray:none;stroke-dashoffset:0;stroke-opacity:1"
     transform="matrix(0,-1,-1,0,0,0)" /><path
     sodipodi:nodetypes="ccccccccc"
     id="path26662-9-1-7"
     d="m 125.08513,67.130401 c 0.19379,-0.121421 0.35957,-0.224853 0.39822,-0.662637 l -0.0242,-3.10716 -1.50842,-1.781801 -1.71356,0.07346 -1.53255,1.502034 0.0482,3.401655 c -0.0473,0.410827 0.23407,0.474967 0.42235,0.603757 z"
     style="display:inline;fill:#c2c7d6;fill-opacity:1;fill-rule:evenodd;stroke:none;stroke-width:0.0321445;stroke-linecap:butt;stroke-linejoin:miter;stroke-miterlimit:4;stroke-dasharray:none;stroke-opacity:1" /><path
     sodipodi:nodetypes="ccsssscccc"
     id="path26650-6-2-4"
     d="m 121.9652,65.534903 -0.49491,-1.23912 c 0,0 -0.36049,-0.01562 -0.5205,-0.281145 -0.16,-0.265514 -0.24117,-0.468291 -0.11945,-0.780945 0.12972,-0.333204 0.23778,-0.416502 0.42663,-0.551882 0.2355,-0.168805 0.34771,-0.111902 0.57171,0.01098 0.22398,0.122409 0.32424,0.478982 0.32424,0.478982 l 0.45225,0.5727 -0.60583,1.770159 z"
     style="display:inline;fill:#a4abc2;fill-opacity:1;fill-rule:evenodd;stroke:none;stroke-width:0.0321445;stroke-linecap:butt;stroke-linejoin:miter;stroke-miterlimit:4;stroke-dasharray:none;stroke-opacity:1" /><path
     sodipodi:nodetypes="ccccc"
     id="path26654-3-4-4"
     d="m 124.19215,65.598933 1.97904,1.973242 c 0.0336,0.342087 -0.1223,0.360502 -0.24135,0.441786 l -1.8101,-1.781813 z"
     style="display:inline;fill:#a4abc2;fill-opacity:1;fill-rule:evenodd;stroke:none;stroke-width:0.015307px;stroke-linecap:butt;stroke-linejoin:miter;stroke-opacity:1" /><path
     sodipodi:nodetypes="ccsssscccc"
     id="path26648-7-2-4"
     d="m 124.17148,65.607145 0.49491,-1.239108 c 0,0 0.36051,-0.01562 0.5205,-0.281133 0.16,-0.265538 0.24119,-0.468316 0.11945,-0.780957 -0.1297,-0.333216 -0.23778,-0.416502 -0.42664,-0.551882 -0.23549,-0.168805 -0.34771,-0.111902 -0.5717,0.01098 -0.22399,0.122396 -0.32425,0.478981 -0.32425,0.478981 l -0.45223,0.5727 0.60583,1.770171 z"
     style="display:inline;fill:#a4abc2;fill-opacity:1;fill-rule:evenodd;stroke:none;stroke-width:0.0321445;stroke-linecap:butt;stroke-linejoin:miter;stroke-miterlimit:4;stroke-dasharray:none;stroke-opacity:1" /><path
     sodipodi:nodetypes="ccccc"
     id="path26656-8-5-4"
     d="m 122.05854,65.569487 -1.97903,1.973242 c -0.0336,0.342087 0.12228,0.360502 0.24135,0.441774 l 1.8101,-1.781801 z"
     style="display:inline;fill:#a4abc2;fill-opacity:1;fill-rule:evenodd;stroke:none;stroke-width:0.015307px;stroke-linecap:butt;stroke-linejoin:miter;stroke-opacity:1" /><path
     sodipodi:nodetypes="cccccc"
     id="path26635-8-8-4"
     d="m 123.0878,67.158638 1.14341,-0.708056 -0.034,-1.666043 c -0.0513,-1.862963 -2.15341,-1.633205 -2.20149,-0.06248 l -0.0597,1.72851 z"
     style="display:inline;fill:#71798f;fill-opacity:1;fill-rule:evenodd;stroke:none;stroke-width:0.0306139;stroke-linecap:butt;stroke-linejoin:miter;stroke-miterlimit:4;stroke-dasharray:none;stroke-opacity:1" /><path
     style="display:inline;fill:#a4abc2;fill-opacity:1;fill-rule:evenodd;stroke:none;stroke-width:0.0153069;stroke-linecap:round;stroke-linejoin:round;stroke-miterlimit:4;stroke-dasharray:none;stroke-dashoffset:0;stroke-opacity:1"
     d="m 124.46157,61.223659 c -2.1e-4,0.363186 -0.2209,0.655766 -0.49494,0.655766 h -1.73206 c -0.27419,0 -0.49494,-0.292348 -0.49494,-0.655766 v -0.385726 h -0.004 v -0.686945 c 0,-1.084508 0.60698,-1.957757 1.36096,-1.957757 0.75399,0 1.36097,0.873249 1.36097,1.957757 v 0.319695 c 0.003,0.02819 0.004,0.05687 0.004,0.08615 v 0.666322 z"
     id="rect9750-9-6-2" /><rect
     style="display:inline;fill:#a4abc2;fill-opacity:1;fill-rule:evenodd;stroke:none;stroke-width:0.0153069;stroke-linecap:round;stroke-linejoin:round;stroke-miterlimit:4;stroke-dasharray:none;stroke-dashoffset:0;stroke-opacity:1"
     id="rect9764-1-2-9"
     width="0.57269859"
     height="0.45224279"
     x="-60.952656"
     y="-124.78584"
     ry="0.068263061"
     rx="0.083301611"
     transform="matrix(0,-1,-1,0,0,0)" /><rect
     style="display:inline;fill:#a4abc2;fill-opacity:1;fill-rule:evenodd;stroke:none;stroke-width:0.0153069;stroke-linecap:round;stroke-linejoin:round;stroke-miterlimit:4;stroke-dasharray:none;stroke-dashoffset:0;stroke-opacity:1"
     id="rect9766-3-6-3"
     width="0.57269859"
     height="0.45224279"
     x="-60.968269"
     y="-121.93159"
     ry="0.068263061"
     rx="0.083301611"
     transform="matrix(0,-1,-1,0,0,0)" /><rect
     style="display:inline;fill:#677399;fill-opacity:1;fill-rule:evenodd;stroke:none;stroke-width:0.0153069;stroke-linecap:round;stroke-linejoin:round;stroke-miterlimit:4;stroke-dasharray:none;stroke-dashoffset:0;stroke-opacity:1"
     id="rect25620-3-6-0"
     width="0.80177975"
     height="0.58877677"
     x="-63.867901"
     y="-124.95288"
     rx="0"
     ry="0.23038787"
     transform="matrix(0,-1,-1,0,0,0)" /><rect
     style="display:inline;fill:#677399;fill-opacity:1;fill-rule:evenodd;stroke:none;stroke-width:0.0153069;stroke-linecap:round;stroke-linejoin:round;stroke-miterlimit:4;stroke-dasharray:none;stroke-dashoffset:0;stroke-opacity:1"
     id="rect25630-2-2-7"
     width="0.80177975"
     height="0.58877677"
     x="-63.809017"
     y="-121.77917"
     rx="0"
     ry="0.23038787"
     transform="matrix(0,-1,-1,0,0,0)" /><g
     transform="matrix(0,-0.02223178,-0.01409539,0,188.1477,177.29872)"
     id="g18161-0-0"
     style="display:inline;stroke:none;stroke-opacity:1"><rect
       style="opacity:1;fill:#a4abc2;fill-opacity:1;fill-rule:evenodd;stroke:none;stroke-width:1;stroke-linecap:round;stroke-linejoin:round;stroke-miterlimit:4;stroke-dasharray:none;stroke-dashoffset:0;stroke-opacity:1"
       id="rect18144-3-3"
       width="235.13643"
       height="212.49367"
       x="4686.0015"
       y="4519.8242"
       rx="109.29489"
       ry="105.37595" /><rect
       style="opacity:1;fill:#838dac;fill-opacity:1;fill-rule:evenodd;stroke:none;stroke-width:1;stroke-linecap:round;stroke-linejoin:round;stroke-miterlimit:4;stroke-dasharray:none;stroke-dashoffset:0;stroke-opacity:1"
       id="rect17173-6-8"
       width="235.13643"
       height="212.49367"
       x="4677.4731"
       y="4519.8442"
       rx="109.29489"
       ry="105.37595" /><rect
       style="opacity:1;fill:#4b536f;fill-opacity:1;fill-rule:evenodd;stroke:none;stroke-width:1;stroke-linecap:round;stroke-linejoin:round;stroke-miterlimit:4;stroke-dasharray:none;stroke-dashoffset:0;stroke-opacity:1"
       id="rect18146-4-2"
       width="161.08566"
       height="140.81932"
       x="4712.3081"
       y="4555.813"
       rx="109.29488"
       ry="105.37595" /><path
       style="fill:none;fill-opacity:1;stroke:#7681a3;stroke-width:15.2379;stroke-linecap:round;stroke-linejoin:round;stroke-dasharray:none;stroke-opacity:1"
       d="M 4867.141,4627.3224 H 4718.8082"
       id="path10-5"
       sodipodi:nodetypes="cc" /><path
       style="display:inline;fill:none;fill-opacity:1;stroke:#7680a3;stroke-width:15.2379;stroke-linecap:round;stroke-linejoin:round;stroke-dasharray:none;stroke-opacity:1"
       d="M 4793.0645,4690.5836 V 4562.4092"
       id="path10-4-2"
       sodipodi:nodetypes="cc" /></g></g>

</svg>
