<?xml version="1.0" encoding="UTF-8" standalone="no"?>
<!-- Created with Inkscape (http://www.inkscape.org/) -->

<svg
   width="15.999992mm"
   height="15.999984mm"
   viewBox="0 0 15.999992 15.999984"
   version="1.1"
   id="svg1"
   inkscape:version="1.4 (86a8ad7, 2024-10-11)"
   sodipodi:docname="船艦美術草稿.svg"
   xml:space="preserve"
   inkscape:export-filename="NavalChess\wwwroot\images\units\submarine.png"
   inkscape:export-xdpi="100"
   inkscape:export-ydpi="100"
   xmlns:inkscape="http://www.inkscape.org/namespaces/inkscape"
   xmlns:sodipodi="http://sodipodi.sourceforge.net/DTD/sodipodi-0.dtd"
   xmlns="http://www.w3.org/2000/svg"
   xmlns:svg="http://www.w3.org/2000/svg"><sodipodi:namedview
   id="namedview1"
   pagecolor="#ffffff"
   bordercolor="#000000"
   borderopacity="0.25"
   inkscape:showpageshadow="2"
   inkscape:pageopacity="0.0"
   inkscape:pagecheckerboard="0"
   inkscape:deskcolor="#d1d1d1"
   inkscape:document-units="mm"
   inkscape:lockguides="false"
   showgrid="true"
   inkscape:zoom="8.0000002"
   inkscape:cx="740.62498"
   inkscape:cy="562.81249"
   inkscape:window-width="1920"
   inkscape:window-height="1009"
   inkscape:window-x="-8"
   inkscape:window-y="-8"
   inkscape:window-maximized="1"
   inkscape:current-layer="g6"
   inkscape:export-bgcolor="#ffffff00"
   showguides="true"><inkscape:grid
     id="grid4"
     units="mm"
     originx="-192"
     originy="-127.99998"
     spacingx="2.0000001"
     spacingy="1.9999996"
     empcolor="#0099e5"
     empopacity="0.30196078"
     color="#0099e5"
     opacity="0.14901961"
     empspacing="8"
     enabled="true"
     visible="true"
     snapvisiblegridlinesonly="true"
     dotted="false" /><inkscape:page
     x="0"
     y="1.1711993e-15"
     width="15.999992"
     height="15.999985"
     id="page2"
     margin="0"
     bleed="0" /></sodipodi:namedview><defs
   id="defs1" /><g
   inkscape:label="圖層 1"
   inkscape:groupmode="layer"
   id="layer1"
   transform="translate(-192,-127.99997)"><g
     id="g2"
     inkscape:export-filename="NavalChess\wwwroot\images\Unit\mine.svg"
     inkscape:export-xdpi="100"
     inkscape:export-ydpi="100"><path
       style="fill:#a4abc2;fill-opacity:1;stroke:none;stroke-width:0.0249929;stroke-linecap:round;stroke-linejoin:round"
       d="m 106.97472,312.48122 1.99888,-0.46589 -1.99888,-0.53411 z"
       id="path11"
       inkscape:export-filename="NavalChess\wwwroot\images\Unit\mine.svg"
       inkscape:export-xdpi="100"
       inkscape:export-ydpi="100"
       transform="matrix(-1.0005635,0,0,1,304.09015,-192)" /><path
       style="fill:#a4abc2;fill-opacity:1;stroke:none;stroke-width:0.0249929;stroke-linecap:round;stroke-linejoin:round"
       d="m 100.99052,312.51416 -1.998882,-0.46589 1.998882,-0.53411 z"
       id="path11-5"
       transform="matrix(-1.0005635,0,0,1,304.09015,-192)" /><ellipse
       style="fill:#71798f;fill-opacity:1;stroke:none;stroke-width:0.0499858;stroke-linecap:round;stroke-linejoin:round"
       id="path3"
       cx="-104.03154"
       cy="311.99997"
       transform="matrix(1.0005635,0,0,1,304.09015,-192)"
       rx="3.9977474"
       ry="3.999999" /><ellipse
       style="fill:#a4abc2;fill-opacity:1;stroke:none;stroke-width:0.0499858;stroke-linecap:round;stroke-linejoin:round"
       id="path10"
       cx="-104.03153"
       cy="311.99997"
       transform="matrix(1.0005635,0,0,1,304.09015,-192)"
       rx="0.99943686"
       ry="0.99999976" /><path
       style="fill:#a4abc2;fill-opacity:1;stroke:none;stroke-width:0.0334679;stroke-linecap:round;stroke-linejoin:round"
       d="m 104.70733,309.13638 -0.62352,-2.6782 -0.71483,2.6782 z"
       id="path11-8"
       transform="matrix(-1.0005635,0,0,1,304.09015,-192)" /><path
       style="fill:#a4abc2;fill-opacity:1;stroke:none;stroke-width:0.0305749;stroke-linecap:round;stroke-linejoin:round"
       d="m 106.5075,310.42683 1.17628,-2.21945 -2.09834,1.41606 z"
       id="path11-8-1"
       transform="matrix(-1.0005635,0,0,1,304.09015,-192)" /><path
       style="fill:#a4abc2;fill-opacity:1;stroke:none;stroke-width:0.0305749;stroke-linecap:round;stroke-linejoin:round"
       d="m 101.53996,310.43266 -1.17628,-2.21945 2.09834,1.41606 z"
       id="path11-8-1-2"
       transform="matrix(-1.0005635,0,0,1,304.09015,-192)" /><path
       style="fill:#a4abc2;fill-opacity:1;stroke:none;stroke-width:0.0305749;stroke-linecap:round;stroke-linejoin:round"
       d="m 106.50153,313.58123 1.17628,2.21945 -2.09834,-1.41606 z"
       id="path11-8-1-3"
       transform="matrix(-1.0005635,0,0,1,304.09015,-192)" /><path
       style="fill:#a4abc2;fill-opacity:1;stroke:none;stroke-width:0.0305749;stroke-linecap:round;stroke-linejoin:round"
       d="m 101.53399,313.5754 -1.17628,2.21945 2.09834,-1.41606 z"
       id="path11-8-1-2-2"
       transform="matrix(-1.0005635,0,0,1,304.09015,-192)" /><path
       style="fill:#a4abc2;fill-opacity:1;stroke:none;stroke-width:0.0334679;stroke-linecap:round;stroke-linejoin:round"
       d="m 104.70136,314.87168 -0.62352,2.6782 -0.71483,-2.6782 z"
       id="path11-8-2"
       transform="matrix(-1.0005635,0,0,1,304.09015,-192)" /><path
       style="fill:none;stroke:none;stroke-width:0.423;stroke-linecap:round;stroke-linejoin:round"
       d="m 192,111.99998 v 15.99999 h 16 v -15.99999 h -16"
       id="path12" /><path
       style="fill:none;stroke:none;stroke-width:0.423;stroke-linecap:round;stroke-linejoin:round"
       d="m 184,127.99998 v 15.99999 h 16 v -15.99999 h -16"
       id="path12-8" /></g></g>

<g
   id="g33-6-92"
   transform="matrix(0.13574838,0,0,0.16250261,-23.756514,0.47065852)"
   inkscape:export-filename="NavalChess\wwwroot\images\Unit\turret.svg"
   inkscape:export-xdpi="100"
   inkscape:export-ydpi="100"><ellipse
     style="display:inline;fill:#666666;fill-opacity:1;fill-rule:evenodd;stroke:none;stroke-width:0.180849;stroke-linecap:round;stroke-linejoin:miter;stroke-miterlimit:4;stroke-dasharray:none;stroke-dashoffset:0;stroke-opacity:1"
     id="path13939-6-7-3-1-3-0-7"
     cx="-253.02888"
     cy="46.829288"
     rx="25.287569"
     ry="20.307228"
     transform="scale(-1,1)"
     inkscape:export-filename="NavalChess\wwwroot\images\Unit\turret.svg"
     inkscape:export-xdpi="100"
     inkscape:export-ydpi="100" /><g
     id="g32-0-9"
     transform="matrix(0.90086685,0,0,0.90086685,278.40203,5.6957084)"><polygon
       style="fill:#8b8b8b;fill-opacity:1;stroke:#7a849d;stroke-width:0.0336645;stroke-dasharray:none;stroke-opacity:1"
       points="87.048,39.104 82.888,38.434 85.968,35.374 87.798,36.824 "
       id="polygon68-2-5"
       transform="matrix(1.7165515,0,0,1.7165515,-195.47521,-33.221632)" /><polygon
       style="fill:#ff847c"
       points="82.888,45.934 82.888,43.454 85.968,43.514 85.968,40.074 82.888,40.134 82.888,40.124 82.888,38.434 87.048,39.104 87.048,45.934 87.048,52.764 82.888,53.434 82.888,51.734 85.968,51.795 85.968,48.354 82.888,48.414 82.888,48.404 "
       id="polygon70-4-4"
       transform="matrix(1.7165515,0,0,1.7165515,-195.47521,-33.221632)" /><polygon
       style="fill:#8b8b8b;fill-opacity:1;stroke:#7a849d;stroke-width:0.0336645;stroke-dasharray:none;stroke-opacity:1"
       points="85.968,56.494 82.888,53.434 87.048,52.764 87.798,55.045 "
       id="polygon71-3-3"
       transform="matrix(1.7165515,0,0,1.7165515,-195.47521,-33.221632)" /><polygon
       style="fill:#7e7e7e;fill-opacity:1;stroke:#6b7691;stroke-width:0.0201987;stroke-dasharray:none;stroke-opacity:1"
       points="87.798,55.045 94.028,56.494 94.028,58.295 85.968,56.494 "
       id="polygon72-3-1"
       transform="matrix(1.7165515,0,0,1.7165515,-195.47521,-33.221632)" /><polygon
       style="fill:#717171;fill-opacity:1;stroke:#606982;stroke-width:0.0201987;stroke-dasharray:none;stroke-opacity:1"
       points="110.417,56.494 104.638,57.124 104.628,57.135 94.028,58.295 94.028,56.494 104.358,55.614 111.018,55.045 "
       id="polygon73-6-2"
       transform="matrix(1.7165515,0,0,1.7165515,-195.47521,-33.221632)" /><path
       id="polygon75-2-3"
       style="fill:#8c8c8c;fill-opacity:1;stroke:#747d97;stroke-width:0.0346721;stroke-dasharray:none;stroke-opacity:1"
       d="m -34.069816,27.500338 -10.697034,2.489166 -1.287303,3.913887 v 11.72528 11.719824 l 1.287303,3.919344 10.697034,2.483707 17.728197,-1.5066 v -7.811396 -3.449896 -5.354983 -5.409568 -3.449897 -7.75681 z" /><path
       id="polygon76-8-3"
       style="fill:#878787;fill-opacity:1;stroke:#6d7692;stroke-width:0.0346721;stroke-dasharray:none;stroke-opacity:1"
       d="m -16.341619,29.012396 v 7.75681 3.449897 5.409568 5.354983 3.449896 7.811396 l 11.4354255,-0.977107 0.1568413,-0.382108 0.9540421,-2.953155 0.7579948,-3.051413 0.065349,-0.382107 0.6077107,-3.586366 0.2352534,-2.17802 0.091475,-3.105999 -0.091475,-3.111457 -0.2352534,-2.227148 -0.6077107,-3.569988 -0.065349,-0.398485 -0.7579948,-3.002283 -0.9540421,-2.953155 -0.1568413,-0.376651 z" /><polygon
       style="fill:#717171;fill-opacity:1;stroke:#606982;stroke-width:0.0201987;stroke-dasharray:none;stroke-opacity:1"
       points="94.028,35.374 94.028,33.574 104.628,34.734 104.638,34.744 110.417,35.374 111.018,36.824 104.358,36.254 "
       id="polygon80-2-4"
       transform="matrix(1.7165515,0,0,1.7165515,-195.47521,-33.221632)" /><polygon
       style="fill:#7e7e7e;fill-opacity:1;stroke:#6b7691;stroke-width:0.0201987;stroke-dasharray:none;stroke-opacity:1"
       points="87.798,36.824 85.968,35.374 94.028,33.574 94.028,35.374 "
       id="polygon81-3-1"
       transform="matrix(1.7165515,0,0,1.7165515,-195.47521,-33.221632)" /><polygon
       style="fill:#1f1a17"
       points="82.888,51.734 82.888,51.724 85.968,51.795 "
       id="polygon137-4-1"
       transform="matrix(1.7165515,0,0,1.7165515,-195.47521,-33.221632)" /><path
       style="fill:#929292;fill-opacity:1;stroke:#818ba3;stroke-width:0.0577869;stroke-linecap:round;stroke-linejoin:round;stroke-dasharray:none;stroke-opacity:1"
       d="m -53.193668,32.752319 v 25.748255 l 7.140857,-1.150083 V 33.902402 Z"
       id="path28-3-3"
       transform="translate(8.7478022e-6)" /></g><g
     transform="matrix(-0.16381581,0,0,0.14962621,1139.4779,-562.63976)"
     id="g13937-6-9-9-0-9-4-8"
     style="display:inline;stroke:none"><g
       id="g13975-1-6-77-4-3-1-9-0-9"
       transform="matrix(1.1844472,0,0,1.4386901,-1847.9109,-2033.7901)"
       style="display:inline;stroke:none"><path
         id="path13977-6-7-9-8-6-8-4-0-8"
         d="m 6230,4229.5938 c -5.8993,-0.025 -8.48,6.8096 -8.5,13.9374 -4e-4,0.1589 0,0.3097 0,0.4688 0.017,7.1317 2.5977,13.963 8.5,13.9375 l 29.125,-0.6563 1.5,-1.25 19.9688,-0.5624 0.1874,-0.1876 c -0.098,-0.3104 -0.3143,-0.5948 -0.4062,-0.9062 -1.0365,-3.4974 -1.6627,-7.0093 -1.9375,-10.625 0.2762,-3.605 0.904,-7.1064 1.9375,-10.5938 0.092,-0.3117 0.3083,-0.5957 0.4062,-0.9062 l -0.1874,-0.1875 -19.9688,-0.5625 -1.5,-1.25 z"
         style="fill:#c5b48e;fill-opacity:1;fill-rule:evenodd;stroke:none;stroke-width:1px;stroke-linecap:butt;stroke-linejoin:miter;stroke-opacity:1" /><path
         sodipodi:nodetypes="czcccczccc"
         id="path13979-4-5-3-6-1-2-8-8-6"
         d="m 6280.7812,4232.25 c -1.4568,3.4771 -2.3179,7.2943 -2.4343,11.0447 -0.1164,3.7504 0.9661,7.6406 2.1167,11.3096 0.174,0.6347 0.4086,0.7568 0.8166,0.25 0.7712,-0.6598 1.5424,-1.3195 2.3136,-1.9793 0.4791,0 0.9583,0 1.4374,0 -0.7614,-3.0345 -1.8199,-4.5256 -1.6745,-9.2388 0.1455,-4.7153 0.9179,-6.0292 1.6745,-8.98 -0.4876,-0.023 -1.0085,0.045 -1.4758,-0.033 -0.9247,-0.7911 -1.8494,-1.5823 -2.7742,-2.3734 z"
         style="fill:#343434;fill-opacity:1;fill-rule:evenodd;stroke:none;stroke-width:1px;stroke-linecap:butt;stroke-linejoin:miter;stroke-opacity:1" /><path
         sodipodi:nodetypes="cccsccccssscc"
         id="path13981-0-0-1-5-5-6-3-8-5"
         d="m 6285.0312,4234.6562 c -0.7482,2.9197 -1.3734,5.8686 -1.6562,8.875 h -0.062 c 0.01,0.084 0.024,0.1665 0.031,0.25 -0.01,0.074 -0.025,0.1445 -0.031,0.2188 h 0.062 c 0.2825,3.0086 0.9074,5.9531 1.6562,8.875 l 45.4123,-0.1089 c -1.7126,-2.5122 -1.6872,-5.7287 -1.7873,-8.7661 0,-0.082 0,-0.1678 0,-0.25 0,-0.074 6e-4,-0.1452 0,-0.2188 0.101,-3.0352 0.184,-6.3104 1.4063,-8.875 z"
         style="fill:#4d4d4d;fill-opacity:1;fill-rule:evenodd;stroke:none;stroke-width:1px;stroke-linecap:butt;stroke-linejoin:miter;stroke-opacity:1" /><path
         sodipodi:nodetypes="czcczccc"
         id="path13983-6-0-98-0-4-6-9-0-0"
         d="m 6330.0625,4234.6562 c -0.7356,3.0046 -1.4374,5.3058 -1.4063,9.125 0.031,3.8192 0.973,7.2577 2.4063,9.0938 l 3.625,-1.2188 c -0.6447,-2.6722 -1.1553,-5.4542 -1.2187,-8.125 -0.063,-2.6708 0.7566,-5.1194 1.2187,-7.6562 l -3.625,-1.2188 z"
         style="fill:#343434;fill-opacity:1;fill-rule:evenodd;stroke:none;stroke-width:1px;stroke-linecap:butt;stroke-linejoin:miter;stroke-opacity:1" /><path
         id="path13985-1-4-6-9-2-0-7-5-2"
         d="m 6334.6875,4235.875 c -0.4618,2.5366 -1.1497,5.05 -1.2187,7.6562 -6e-4,0.021 4e-4,0.041 0,0.063 -10e-4,0.1144 0,0.2311 0,0.3437 1e-4,0.021 -2e-4,0.042 0,0.062 0.069,2.607 0.7567,5.1187 1.2187,7.6562 l 1.8125,-0.6874 h 145.1875 c -0.1171,-0.238 -0.3035,-0.4102 -0.4063,-0.6563 -0.6716,-1.6001 -1.0941,-3.3732 -1.0937,-5.2187 0,-0.3679 4e-4,-0.7311 0.031,-1.0938 h 0.062 c -0.01,-0.075 -0.023,-0.1434 -0.031,-0.2188 0.01,-0.083 0.021,-0.1679 0.031,-0.25 h -0.062 c -0.03,-0.3565 -0.031,-0.7323 -0.031,-1.0937 -3e-4,-1.8459 0.4222,-3.6186 1.0937,-5.2187 0.1029,-0.246 0.2892,-0.4183 0.4063,-0.6563 H 6336.5 Z"
         style="fill:#4d4d4d;fill-opacity:1;fill-rule:evenodd;stroke:none;stroke-width:1px;stroke-linecap:butt;stroke-linejoin:miter;stroke-opacity:1" /><path
         id="path13987-8-5-5-0-0-3-6-1-8"
         d="m 6481.6875,4236.5625 c -0.1172,0.2381 -0.3031,0.4104 -0.4063,0.6563 -0.6718,1.6 -1.094,3.3728 -1.0937,5.2187 0,0.4491 0.015,0.9033 0.062,1.3437 -0.046,0.4335 -0.063,0.8706 -0.062,1.3126 -3e-4,1.8459 0.4218,3.6188 1.0937,5.2187 0.1031,0.2459 0.289,0.4178 0.4063,0.6563 h 1.8125 c 0.8392,-0.6771 1.738,-3.9293 1.9375,-6.9688 h 0.031 c 0,-0.073 -0.027,-0.1452 -0.031,-0.2188 0,-0.082 0.028,-0.1686 0.031,-0.25 h -0.031 c -0.201,-3.0363 -1.0995,-6.2926 -1.9375,-6.9687 z"
         style="fill:#343434;fill-opacity:1;fill-rule:evenodd;stroke:none;stroke-width:1px;stroke-linecap:butt;stroke-linejoin:miter;stroke-opacity:1" /><ellipse
         id="path13989-9-4-02-0-9-8-4-4-6"
         style="opacity:1;fill:#080808;fill-opacity:1;fill-rule:evenodd;stroke:none;stroke-width:1;stroke-linecap:round;stroke-linejoin:round;stroke-miterlimit:4;stroke-dasharray:none;stroke-dashoffset:0;stroke-opacity:1"
         cx="6482.9072"
         cy="4243.5591"
         rx="0.76201618"
         ry="4.3543782" /></g></g><path
     style="fill:none;stroke:none;stroke-width:2.84802;stroke-linecap:round;stroke-linejoin:round;stroke-opacity:1"
     d="M 175.00401,-2.8962612 V 95.563636 H 292.86913 V -2.8962612 H 175.00401"
     id="path12-1" /></g></svg>
